<svg width="79" height="51" fill="none" xmlns="http://www.w3.org/2000/svg"><path fill-rule="evenodd" clip-rule="evenodd" d="M1.649 48.715c.601.364 1.621.773 2.59.773 1.397 0 2.064-.707 2.064-1.643 0-.96-.56-1.456-1.977-2.008-1.945-.716-2.85-1.786-2.85-3.099 0-1.774 1.42-3.233 3.71-3.233 1.085 0 2.042.298 2.612.683l-.463 1.456a4.043 4.043 0 00-2.194-.663c-1.162 0-1.785.684-1.785 1.5 0 .916.623 1.325 2.022 1.886 1.839.707 2.817 1.667 2.817 3.299 0 1.953-1.482 3.32-3.988 3.32-1.17 0-2.256-.32-3.021-.773l.463-1.498zm15.595 1.647c-.504.253-1.646.638-3.084.638-3.234 0-5.342-2.249-5.342-5.625 0-3.388 2.256-5.87 5.772-5.87 1.15 0 2.17.298 2.71.597l-.442 1.52c-.462-.253-1.191-.518-2.256-.518-2.46 0-3.795 1.885-3.795 4.17 0 2.547 1.601 4.116 3.73 4.116 1.106 0 1.838-.275 2.396-.52l.31 1.492zm1.171-15.778h1.957v16.162h-1.957V34.583zm5.355 10.681c0 2.416 1.334 4.235 3.235 4.235 1.858 0 3.255-1.799 3.255-4.28 0-1.864-.913-4.215-3.214-4.215-2.289 0-3.276 2.184-3.276 4.26zm8.488-.123c0 4.072-2.772 5.846-5.343 5.846-2.881 0-5.147-2.183-5.147-5.67 0-3.662 2.375-5.825 5.32-5.825 3.086.012 5.17 2.306 5.17 5.65zm10.33 2.583c0 1.157.02 2.162.086 3.021h-1.728l-.107-1.798h-.042A4.005 4.005 0 0137.251 51c-1.687 0-3.709-.981-3.709-4.82v-6.443H35.5v6.08c0 2.096.646 3.53 2.396 3.53 1.31 0 2.214-.936 2.567-1.843a2.92 2.92 0 00.172-1.026v-6.752h1.957v7.999h-.003zm9.449-3.51c0-.254-.02-.597-.086-.839-.29-1.258-1.355-2.293-2.816-2.293-2.02 0-3.214 1.82-3.214 4.235 0 2.228 1.085 4.071 3.17 4.071 1.31 0 2.505-.915 2.857-2.395.066-.274.086-.551.086-.859v-1.92h.003zm1.933-9.632v13.315c0 .981.045 2.097.086 2.845h-1.731l-.086-1.908h-.065c-.581 1.225-1.86 2.162-3.612 2.162-2.59 0-4.61-2.249-4.61-5.604-.02-3.663 2.215-5.891 4.815-5.891 1.666 0 2.751.793 3.235 1.664h.041v-6.585h1.927v.002zm1.462 14.982c0-.817.557-1.434 1.331-1.434.774 0 1.31.596 1.31 1.434 0 .818-.536 1.435-1.354 1.435-.747 0-1.287-.617-1.287-1.435z" fill="#2B2A29"/><path fill-rule="evenodd" clip-rule="evenodd" d="M59.379 43.168c0-1.3-.021-2.416-.087-3.442H61l.086 2.183h.066c.483-1.48 1.687-2.416 2.997-2.416.205 0 .356.021.537.045v1.885c-.205-.045-.398-.045-.667-.045-1.376 0-2.355 1.047-2.621 2.547a6.186 6.186 0 00-.066.937v5.87h-1.956v-7.564h.003zm15.132 4.557c0 1.157.021 2.162.086 3.021h-1.731l-.107-1.798h-.041A4.005 4.005 0 0169.172 51c-1.688 0-3.71-.981-3.71-4.82v-6.443h1.957v6.08c0 2.096.647 3.53 2.396 3.53 1.31 0 2.215-.936 2.568-1.843.106-.274.183-.638.183-1.026v-6.752h1.957v7.999h-.012z" fill="#808285"/><path fill-rule="evenodd" clip-rule="evenodd" d="M.308 33.978A11.786 11.786 0 010 31.291c0-1.647.308-2.843.308-2.843a12.087 12.087 0 01.617-2.404c.095-.253.19-.495.308-.733.095-.21.202-.418.309-.603.095-.176.201-.352.308-.516.095-.155.202-.307.308-.45.095-.143.202-.275.309-.406a7.66 7.66 0 01.308-.36c.095-.111.202-.221.309-.329a7.4 7.4 0 01.308-.295c.095-.099.201-.188.308-.274.095-.087.202-.165.309-.254.094-.078.201-.155.308-.23.107-.077.202-.143.308-.209.107-.065.202-.13.309-.196.106-.066.201-.12.308-.176.107-.054.202-.11.308-.164.107-.054.202-.099.309-.155.106-.045.201-.099.308-.144.107-.044.202-.086.308-.13.107-.046.202-.078.309-.12.106-.033.201-.078.308-.11.107-.033.202-.066.308-.099.107-.033.202-.054.309-.087.107-.032.21-.053.308-.077.107-.02.21-.045.308-.066.116-.02.211-.044.309-.053.127-.021.222-.033.308-.045.107-.012.16-.02.16-.02s.021-.451.137-1.209c.062-.406.16-.91.308-1.482.086-.34.18-.713.308-1.11.086-.295.19-.602.309-.921.095-.263.19-.537.308-.812.095-.241.19-.483.308-.724.095-.221.19-.439.309-.66.095-.196.201-.405.308-.602.095-.188.202-.373.309-.57.094-.176.201-.352.308-.528.095-.164.202-.328.308-.495a9.16 9.16 0 01.309-.471c.094-.155.201-.295.308-.45a8.11 8.11 0 01.308-.427c.095-.131.202-.274.309-.406.095-.13.201-.253.308-.384.095-.12.202-.242.308-.373.095-.12.202-.242.309-.352.095-.11.201-.23.308-.34.095-.11.202-.221.308-.328.095-.11.202-.21.309-.32.095-.098.201-.196.308-.307a7.45 7.45 0 01.308-.295c.095-.098.202-.188.309-.286.095-.087.201-.176.308-.275a7.08 7.08 0 01.309-.262c.094-.087.201-.164.308-.254a6.97 6.97 0 01.308-.241c.095-.078.202-.152.308-.242a5.64 5.64 0 01.309-.23 3.39 3.39 0 01.308-.22c.095-.078.202-.143.309-.221.095-.066.201-.143.308-.209.095-.065.202-.131.308-.197.095-.065.202-.13.309-.196.095-.066.201-.132.308-.197.095-.066.202-.12.308-.188.095-.066.202-.12.309-.176.095-.054.201-.12.308-.176.095-.054.202-.11.308-.164.095-.054.202-.11.309-.164.095-.054.201-.11.308-.155.095-.054.202-.099.308-.155.033-.012.063-.033.095-.045.075-.033.137-.066.21-.099.108-.044.203-.098.31-.143l.308-.131c.106-.045.201-.087.308-.131.107-.045.201-.087.308-.12.107-.044.202-.086.309-.119.106-.045.201-.077.308-.11.107-.033.202-.078.308-.11.107-.033.202-.066.309-.099.106-.033.201-.066.308-.098.107-.033.202-.054.308-.087.107-.033.202-.054.309-.086.107-.021.201-.054.308-.078.107-.02.202-.054.308-.078.107-.02.202-.044.309-.065.107-.021.201-.045.308-.066.107-.02.202-.045.308-.053.107-.021.202-.033.309-.054.107-.012.201-.033.308-.045.107-.012.202-.02.308-.033.107-.012.202-.02.309-.033.107-.011.201-.02.308-.02.107-.012.202-.021.309-.021.106-.012.201-.012.308-.021.107 0 .201-.012.308-.012.107 0 .202-.012.309-.012h.616c.107 0 .202.012.309.012.106 0 .201.012.308.012.107 0 .202.012.308.02.107.013.202.013.309.022.106.012.201.02.308.02l.308.033.309.033c.107.012.201.033.308.045.107.012.202.033.309.045.106.02.201.032.308.053.107.021.201.045.308.054.107.02.202.045.309.066.106.02.201.044.308.065.107.021.202.045.308.078.107.02.202.053.309.077.106.021.201.054.308.078.107.033.202.054.308.086.107.033.202.054.309.087l.308.098c.107.033.202.066.308.099.107.032.202.065.309.11.107.033.201.078.308.11.107.033.202.078.308.12.107.044.202.077.309.119.107.045.201.078.308.12.107.044.202.086.308.13l.309.132c.107.045.201.086.308.143.107.045.202.098.309.143.106.054.201.099.308.155.107.054.202.099.308.155.107.054.202.11.309.164.106.054.201.11.308.164.107.054.202.11.308.176.107.054.202.12.309.176.106.054.201.12.308.176.107.066.202.12.308.188.107.066.202.131.309.188.106.066.201.131.308.197.107.066.202.131.308.209.107.065.202.143.309.209.106.077.201.143.308.22.107.078.202.155.309.221.106.078.201.155.308.23.107.077.201.164.308.23.107.086.214.163.309.24.106.087.213.177.308.254.115.099.213.188.308.263.128.11.234.209.309.274.086.078.115.12.115.12.065-.021.116-.045.181-.066.107-.033.202-.078.308-.11.107-.033.202-.078.309-.11l.308-.1c.107-.032.202-.065.308-.098.107-.032.202-.065.309-.098.107-.033.201-.066.308-.086.107-.033.202-.054.309-.087.106-.033.201-.054.308-.086.107-.021.202-.054.308-.078.107-.02.202-.054.309-.078.106-.02.201-.044.308-.065.107-.021.201-.045.308-.066.107-.02.202-.033.309-.054.106-.02.201-.032.308-.053.107-.021.202-.033.308-.045.107-.012.202-.033.309-.045l.308-.032.308-.033c.107-.012.202-.012.309-.021.106-.012.201-.012.308-.021.107 0 .202-.012.309-.012.106 0 .201 0 .308-.012h.308c.107 0 .202 0 .309.012.106 0 .201.012.308.012.107.012.201.012.308.02.107.013.202.022.309.022.106.012.201.02.308.033.107.011.202.032.308.044.107.012.202.033.309.045.106.02.201.033.308.054.107.02.202.044.308.065.107.021.202.045.309.078.106.02.201.054.308.077.107.033.202.054.308.087.107.033.202.066.309.098.107.033.201.066.308.11.107.034.202.078.308.12l.309.131c.106.045.201.087.308.143.107.045.202.099.308.144.107.053.202.098.309.152.107.053.202.11.308.164.107.053.202.119.309.188.106.065.201.13.308.196.107.066.202.144.308.21.107.077.202.142.309.22.106.078.201.155.308.23.107.086.202.164.308.253.107.087.202.176.309.263l.308.286c.107.098.202.197.308.307.107.11.202.22.309.32.106.11.201.229.308.34.107.119.202.24.308.36.107.131.202.263.309.394l.308.418c.107.155.214.307.309.45.106.164.21.328.308.495l.308.537c.116.22.21.418.308.602.14.296.244.537.309.692.053.132.074.21.074.21s.074.02.222.077c.086.033.181.065.309.11.095.033.19.078.308.11.095.033.19.078.308.12.095.044.202.077.309.119.095.045.201.087.308.131.095.045.202.087.308.143.095.045.202.087.309.144.095.044.201.098.308.155.095.053.202.098.308.152.095.054.202.11.309.164.095.053.201.11.308.164.095.054.202.11.309.176.095.053.201.12.308.176.095.053.201.12.308.188.095.065.202.119.309.188.094.065.201.13.308.196.095.066.202.132.308.21.095.065.202.142.309.208.106.078.201.143.308.22.107.078.202.153.308.23.107.078.202.155.309.242.106.078.201.164.308.242.107.086.202.164.308.253.107.087.202.176.309.263.106.086.201.188.308.274.107.099.202.197.308.295.107.099.202.197.309.307l.308.32c.107.11.202.22.309.34.106.119.201.23.308.352.107.119.201.253.308.372.107.132.202.263.309.394.106.143.201.287.308.427.107.155.202.307.308.462.107.164.202.328.309.495.106.176.201.361.308.549.107.197.202.394.308.602.107.221.202.45.309.68.106.254.21.516.308.79.095.275.19.55.264.845.012.045.02.078.033.12.115.393.21.778.308 1.15.115.505.222.988.308 1.438.457 2.544.35 4.489 0 5.927a8.417 8.417 0 01-.617 1.712 5.006 5.006 0 01-.308.548c-.106.164-.201.32-.308.45a3.756 3.756 0 01-.309.374 4.558 4.558 0 01-.616.581c-.137.11-.234.164-.234.164a12.903 12.903 0 00.543-2.326 16.884 16.884 0 000-4.53 18.38 18.38 0 00-.31-1.746 18.865 18.865 0 00-.308-1.216c-.094-.329-.19-.66-.308-.988a12.75 12.75 0 00-.308-.856c-.095-.253-.19-.516-.309-.77-.086-.196-.169-.405-.255-.602-.011-.033-.032-.065-.041-.098a6.084 6.084 0 00-.308-.615c-.095-.188-.202-.36-.309-.537-.095-.163-.201-.319-.308-.483a8.201 8.201 0 00-.308-.426 8.851 8.851 0 00-.309-.394 8.374 8.374 0 00-.308-.36c-.095-.12-.202-.23-.308-.34a3.905 3.905 0 00-.309-.32 7.522 7.522 0 00-.308-.307 4.039 4.039 0 00-.309-.287c-.094-.086-.201-.187-.308-.274a7.084 7.084 0 00-.308-.262c-.095-.087-.202-.164-.309-.254a7.042 7.042 0 00-.308-.241c-.095-.078-.202-.153-.308-.23a2.89 2.89 0 00-.309-.22 4.691 4.691 0 00-.308-.21c-.107-.065-.202-.143-.308-.208-.107-.066-.202-.132-.309-.197-.106-.066-.201-.132-.308-.188-.107-.066-.202-.12-.309-.188a5.436 5.436 0 00-.308-.176c-.107-.054-.201-.12-.308-.176-.107-.054-.202-.11-.309-.164-.106-.054-.201-.11-.308-.164-.107-.054-.201-.11-.308-.152-.107-.054-.202-.099-.309-.155a4.72 4.72 0 00-.308-.144c-.107-.044-.202-.098-.308-.143l-.309-.13-.308-.132-.308-.131c-.107-.045-.202-.087-.309-.12-.106-.044-.201-.077-.308-.119a3.231 3.231 0 00-.308-.11c-.107-.045-.21-.078-.309-.11-.106-.045-.21-.078-.308-.111a2.54 2.54 0 00-.309-.098 1.926 1.926 0 01-.234-.078c-.02-.045-.041-.086-.062-.131-.095-.21-.202-.406-.308-.603a8.701 8.701 0 00-.309-.57 8.44 8.44 0 00-.308-.527c-.095-.164-.202-.329-.308-.495-.095-.156-.202-.308-.309-.463a8.1 8.1 0 00-.308-.426c-.095-.143-.202-.275-.308-.406a4.66 4.66 0 00-.309-.373 4.906 4.906 0 00-.308-.352 6.263 6.263 0 00-.308-.328 3.73 3.73 0 00-.309-.307 4.021 4.021 0 00-.308-.286c-.095-.087-.202-.188-.309-.275-.094-.086-.201-.164-.308-.253-.107-.078-.202-.152-.308-.23-.107-.078-.202-.143-.309-.22-.106-.066-.201-.132-.308-.198-.107-.065-.201-.13-.308-.187-.107-.054-.202-.12-.309-.176-.106-.054-.201-.11-.308-.156a4.746 4.746 0 00-.308-.143l-.309-.13c-.106-.046-.201-.078-.308-.12-.107-.033-.202-.078-.308-.099-.107-.032-.202-.065-.309-.086-.106-.033-.201-.054-.308-.078-.107-.02-.202-.044-.308-.065-.107-.021-.202-.045-.309-.054a3.654 3.654 0 00-.308-.045c-.107-.012-.202-.02-.309-.033a2.676 2.676 0 00-.308-.02c-.107-.012-.201-.012-.308-.012-.107 0-.202 0-.308-.012h-.309c-.107 0-.202.012-.308.012-.107.012-.202.012-.309.02l-.308.033c-.107.012-.202.021-.308.045-.107.012-.202.033-.309.045-.106.02-.201.033-.308.054-.107.02-.202.044-.308.065a2.912 2.912 0 00-.309.078c-.107.02-.201.053-.308.077-.107.033-.202.054-.308.087l-.31.098a3.184 3.184 0 00-.308.11c-.107.033-.202.078-.308.11-.107.046-.202.078-.309.12-.107.045-.201.087-.308.131l-.309.132c-.106.044-.201.098-.308.143-.107.053-.202.098-.308.155-.107.054-.202.11-.309.164-.106.054-.21.12-.308.176-.107.066-.213.12-.308.176a3.984 3.984 0 00-.309.197 3.623 3.623 0 00-.308.209c-.062.044-.095.065-.095.065-.065-.086-.14-.176-.213-.274-.095-.12-.19-.242-.309-.373-.095-.11-.19-.23-.308-.352-.095-.11-.202-.22-.308-.34-.095-.11-.202-.209-.309-.32-.095-.098-.201-.196-.308-.306a7.384 7.384 0 00-.309-.296l-.308-.286c-.095-.087-.201-.176-.308-.274a7.083 7.083 0 00-.309-.263c-.094-.086-.201-.164-.308-.253a6.966 6.966 0 00-.308-.242c-.095-.078-.202-.152-.309-.23a2.886 2.886 0 00-.308-.22c-.095-.078-.202-.144-.308-.221-.095-.066-.202-.143-.309-.209a6.958 6.958 0 00-.308-.197 3.143 3.143 0 00-.308-.188c-.095-.065-.202-.119-.309-.188-.095-.053-.201-.119-.308-.176a7.275 7.275 0 00-.308-.164 7.343 7.343 0 00-.309-.164c-.095-.053-.201-.098-.308-.155-.095-.053-.202-.098-.308-.143-.095-.045-.202-.098-.309-.143-.095-.045-.201-.087-.308-.131-.095-.045-.202-.087-.309-.132-.094-.044-.201-.077-.308-.119-.095-.033-.202-.077-.308-.11-.095-.033-.202-.066-.309-.11-.094-.033-.201-.066-.308-.099a9.722 9.722 0 00-.308-.098c-.095-.033-.202-.054-.309-.087-.094-.033-.201-.054-.308-.077-.095-.021-.202-.054-.308-.078-.095-.02-.202-.045-.309-.066-.095-.02-.201-.044-.308-.065-.095-.021-.202-.033-.308-.054-.095-.02-.202-.033-.309-.054-.095-.012-.201-.032-.308-.044-.095-.012-.202-.021-.308-.045-.095-.012-.202-.021-.309-.033a2.505 2.505 0 00-.308-.02c-.095-.013-.202-.013-.309-.022-.094-.012-.201-.012-.308-.012-.095 0-.201-.012-.308-.012H30.5c-.095 0-.201.012-.308.012-.095 0-.202.012-.309.012-.095.012-.201.012-.308.021a2.485 2.485 0 01-.308.021l-.309.033c-.095.012-.201.02-.308.045-.095.012-.202.032-.308.044-.107.012-.202.033-.309.045-.095.021-.201.033-.308.054-.095.02-.202.045-.308.054-.095.02-.202.044-.309.065a3.87 3.87 0 00-.308.078c-.107.02-.202.053-.308.077-.095.021-.202.054-.309.087-.095.033-.201.053-.308.086-.107.033-.202.066-.308.099-.095.032-.202.065-.309.098a3.174 3.174 0 00-.308.11c-.095.033-.202.078-.309.11-.094.034-.201.078-.308.12-.107.045-.201.078-.308.12-.095.044-.202.086-.309.13-.095.045-.18.078-.275.12-.012 0-.021.012-.033.012-.107.045-.202.098-.308.143-.107.045-.202.098-.309.143-.106.054-.201.099-.308.155-.107.054-.202.11-.308.164-.107.054-.202.11-.309.164-.107.054-.201.11-.308.176-.107.054-.202.12-.308.176-.107.066-.202.12-.309.188-.107.066-.201.131-.308.197a4.681 4.681 0 00-.308.209c-.107.066-.202.143-.309.209l-.308.22c-.107.078-.202.155-.308.23a22.845 22.845 0 00-.617.495c-.107.087-.202.176-.309.263-.106.086-.201.188-.308.274l-.308.286c-.107.099-.202.197-.309.296-.106.098-.201.208-.308.307-.107.11-.202.22-.308.319-.107.11-.202.23-.309.34-.106.12-.201.242-.308.352-.107.12-.202.254-.308.373-.107.131-.202.262-.309.394-.107.13-.201.274-.308.405-.107.143-.202.287-.309.427-.106.155-.201.307-.308.462-.106.164-.201.328-.308.483-.107.176-.202.34-.308.516-.107.188-.202.373-.309.549-.107.197-.201.394-.308.594-.107.208-.202.426-.309.635a23.533 23.533 0 00-.616 1.45c-.107.286-.21.57-.309.834-.115.329-.21.648-.308.955-.116.394-.21.77-.308 1.118a28.02 28.02 0 00-.309 1.417c-.16.868-.19 1.384-.19 1.384a.337.337 0 01-.106.021c-.107.02-.202.045-.309.066-.106.02-.201.044-.308.077-.107.021-.201.054-.308.078-.107.032-.202.053-.309.086-.106.033-.201.054-.308.087-.107.032-.202.065-.308.098-.107.033-.202.066-.309.099-.106.032-.201.077-.308.11-.107.045-.202.078-.308.12-.107.044-.202.077-.309.119-.106.044-.201.086-.308.13-.107.046-.202.1-.308.144-.107.054-.202.098-.309.155-.106.054-.201.11-.308.164-.107.054-.202.12-.308.176-.107.066-.202.12-.309.188-.107.066-.201.131-.308.197-.107.065-.202.143-.308.22-.107.078-.202.156-.309.23-.107.078-.201.164-.308.254-.107.086-.202.176-.309.274-.106.099-.201.197-.308.295l-.308.32c-.107.11-.202.23-.309.351-.106.12-.201.254-.308.385-.107.143-.202.275-.308.418-.107.155-.21.319-.309.471-.106.176-.21.361-.308.537-.107.209-.21.418-.308.626-.107.254-.21.504-.309.758a12.341 12.341 0 00-.616 2.466 15.084 15.084 0 00.094 4.785l-.094-.164c-.107-.185-.21-.385-.309-.57-.115-.242-.21-.483-.308-.725a10.53 10.53 0 01-.294-1.029z" fill="url(#paint0_linear)"/><defs><linearGradient id="paint0_linear" x1="0" y1="18.941" x2="78.63" y2="18.941" gradientUnits="userSpaceOnUse"><stop stop-color="#4DB849"/><stop offset=".531" stop-color="#FFE500"/><stop offset="1" stop-color="#F6841F"/></linearGradient></defs></svg>