<svg width="75" height="48" fill="none" xmlns="http://www.w3.org/2000/svg"><path fill-rule="evenodd" clip-rule="evenodd" d="M1.872 45.85c.566.342 1.526.727 2.439.727 1.314 0 1.942-.666 1.942-1.547 0-.904-.528-1.37-1.862-1.89-1.83-.673-2.681-1.68-2.681-2.916 0-1.67 1.336-3.043 3.49-3.043 1.022 0 1.923.28 2.46.643l-.436 1.37a3.804 3.804 0 00-2.065-.623c-1.094 0-1.68.643-1.68 1.412 0 .861.586 1.246 1.903 1.774 1.73.665 2.651 1.57 2.651 3.105 0 1.838-1.395 3.124-3.753 3.124-1.102 0-2.124-.3-2.844-.727l.436-1.41zM16.55 47.4c-.475.238-1.55.6-2.903.6-3.044 0-5.028-2.117-5.028-5.294 0-3.19 2.123-5.525 5.433-5.525 1.083 0 2.043.28 2.55.562l-.415 1.431c-.436-.238-1.122-.488-2.124-.488-2.316 0-3.572 1.774-3.572 3.924 0 2.398 1.507 3.874 3.51 3.874 1.042 0 1.73-.258 2.255-.488l.293 1.403zm1.102-14.85h1.842v15.21h-1.842V32.55zm5.04 10.052c0 2.274 1.255 3.986 3.044 3.986 1.75 0 3.064-1.693 3.064-4.028 0-1.755-.86-3.967-3.025-3.967-2.154 0-3.083 2.055-3.083 4.009zm7.989-.115c0 3.831-2.61 5.502-5.029 5.502-2.712 0-4.844-2.055-4.844-5.337 0-3.447 2.235-5.482 5.006-5.482 2.905.011 4.867 2.17 4.867 5.317zm9.722 2.43c0 1.09.02 2.036.081 2.844h-1.627l-.1-1.693h-.04A3.77 3.77 0 0135.38 48c-1.588 0-3.49-.924-3.49-4.537V37.4h1.84v5.72c0 1.974.61 3.325 2.256 3.325 1.233 0 2.084-.882 2.416-1.735.1-.258.162-.6.162-.966V37.39h1.842v7.528h-.003zm8.893-3.303c0-.239-.02-.562-.08-.79-.274-1.184-1.276-2.158-2.652-2.158-1.9 0-3.025 1.712-3.025 3.986 0 2.097 1.022 3.832 2.983 3.832 1.234 0 2.358-.862 2.69-2.254.062-.258.081-.52.081-.809v-1.807h.003zm1.82-9.065V45.08c0 .924.041 1.974.08 2.678h-1.63l-.08-1.796h-.061c-.547 1.154-1.75 2.035-3.4 2.035-2.438 0-4.339-2.117-4.339-5.275-.02-3.447 2.085-5.544 4.532-5.544 1.568 0 2.59.747 3.045 1.567h.039v-6.199h1.813v.003zm1.376 14.101c0-.77.524-1.35 1.252-1.35.729 0 1.234.56 1.234 1.35 0 .769-.505 1.35-1.275 1.35-.704 0-1.212-.581-1.212-1.35z" fill="#2B2A29"/><path fill-rule="evenodd" clip-rule="evenodd" d="M56.206 40.628c0-1.224-.02-2.273-.081-3.24h1.607l.081 2.056h.061c.455-1.393 1.588-2.274 2.822-2.274.192 0 .335.02.505.042v1.774c-.193-.042-.374-.042-.628-.042-1.295 0-2.216.985-2.467 2.397a5.834 5.834 0 00-.061.882v5.524h-1.842v-7.119h.003zm14.242 4.289c0 1.09.02 2.036.081 2.844H68.9l-.1-1.693h-.039A3.77 3.77 0 0165.423 48c-1.588 0-3.491-.924-3.491-4.537V37.4h1.841v5.72c0 1.974.609 3.325 2.255 3.325 1.233 0 2.085-.882 2.417-1.735.1-.258.173-.6.173-.966V37.39h1.841v7.528h-.01z" fill="#808285"/><path fill-rule="evenodd" clip-rule="evenodd" d="M.61 31.98a11.117 11.117 0 01-.29-2.53c0-1.55.29-2.675.29-2.675.07-.486.17-.93.29-1.364.09-.31.18-.61.29-.899.09-.238.18-.466.29-.69.09-.197.19-.393.291-.567.09-.166.19-.332.29-.486.09-.146.19-.29.29-.424.09-.135.19-.258.29-.382a8.662 8.662 0 01.581-.648c.09-.093.19-.185.29-.278.09-.093.19-.177.29-.258.09-.082.19-.155.29-.239.09-.073.19-.146.291-.216.1-.073.19-.135.29-.197.1-.061.19-.123.29-.185.1-.062.19-.112.29-.165.101-.051.19-.104.29-.155.101-.05.19-.093.291-.146.1-.042.19-.092.29-.134l.29-.124c.101-.042.19-.073.29-.112.101-.031.19-.073.291-.104.1-.031.19-.062.29-.093.1-.03.19-.05.29-.081.1-.031.199-.05.29-.073.101-.02.199-.042.29-.062.11-.02.199-.042.291-.05.12-.02.21-.031.29-.043.1-.01.15-.02.15-.02s.02-.423.13-1.136c.058-.382.15-.856.29-1.395.08-.32.17-.671.29-1.045.08-.277.178-.567.29-.867.09-.247.179-.505.29-.764.09-.227.179-.454.29-.682a7.66 7.66 0 01.29-.62c.09-.185.19-.382.29-.567.09-.177.19-.351.291-.536.09-.166.19-.332.29-.497.09-.155.19-.309.29-.466.09-.146.19-.3.29-.444.09-.146.19-.278.29-.424.09-.134.19-.27.291-.401.09-.124.19-.258.29-.382.09-.123.19-.238.29-.362.09-.112.19-.227.29-.35.09-.113.19-.228.29-.332.09-.104.19-.216.291-.32.09-.104.19-.208.29-.309.09-.104.19-.196.29-.3.09-.093.19-.186.29-.29.09-.092.19-.185.291-.277.09-.093.19-.177.29-.27.09-.081.19-.165.29-.258.09-.081.19-.166.29-.247.09-.082.19-.155.29-.239.09-.073.19-.154.291-.227.09-.073.19-.143.29-.227.09-.073.19-.146.29-.217.09-.073.19-.143.29-.207.09-.073.19-.135.29-.208.09-.062.19-.135.291-.197.09-.061.19-.123.29-.185.09-.062.19-.123.29-.185.09-.062.19-.124.29-.185.09-.062.19-.113.29-.177.09-.062.19-.113.291-.166.09-.05.19-.112.29-.166.09-.05.19-.103.29-.154.09-.05.19-.104.29-.154.09-.05.19-.104.291-.146.09-.05.19-.093.29-.146.03-.011.059-.031.09-.042.07-.031.128-.062.198-.093.1-.042.19-.093.29-.135l.29-.123.29-.124c.1-.042.19-.081.29-.112.101-.042.19-.081.29-.112a3.16 3.16 0 01.29-.104c.101-.031.19-.073.291-.104.1-.031.19-.062.29-.093.1-.03.19-.061.29-.092.101-.031.19-.05.29-.082.101-.03.19-.05.291-.081.1-.02.19-.05.29-.073.1-.02.19-.05.29-.073.1-.02.19-.042.29-.062.101-.02.19-.042.29-.062.101-.02.19-.042.291-.05.1-.02.19-.031.29-.05.1-.012.19-.032.29-.043l.29-.03.29-.032c.101-.01.19-.02.291-.02.1-.01.19-.019.29-.019.1-.011.19-.011.29-.02.101 0 .19-.01.29-.01.101 0 .19-.012.291-.012h.58c.1 0 .19.011.29.011.101 0 .19.011.29.011.101 0 .19.012.291.02.1.011.19.011.29.02.1.011.19.02.29.02l.29.03c.101.012.19.02.29.031.101.011.19.031.291.042.1.012.19.031.29.042.1.02.19.031.29.05.101.02.19.043.29.051.101.02.19.043.29.062.101.02.19.042.291.062.1.02.19.042.29.073.1.02.19.05.29.073.101.02.19.05.29.073.101.03.19.05.291.081.1.031.19.05.29.082.1.03.19.061.29.092.1.031.19.062.29.093.101.03.19.062.29.104.101.03.19.073.291.104.1.03.19.073.29.112.1.042.19.073.29.112.101.042.19.073.29.113l.29.123.291.124c.1.042.19.081.29.134.1.042.19.093.29.135.101.05.19.093.29.146.101.05.19.093.291.146.1.05.19.104.29.154.1.051.19.104.29.155.1.05.19.104.29.165.101.051.19.113.29.166.101.05.19.112.291.166.1.061.19.112.29.177.1.061.19.123.29.176.1.062.19.124.29.186.101.061.19.123.29.196.101.062.19.135.291.197.1.073.19.134.29.207.1.073.19.146.29.208.101.073.19.146.29.216.101.073.19.155.291.216.1.082.2.155.29.228l.29.238c.11.093.201.177.29.247.12.104.221.197.29.259.082.073.11.112.11.112.061-.02.109-.042.17-.062.1-.03.19-.073.29-.104.1-.03.19-.073.29-.103.1-.031.19-.062.29-.093.101-.031.19-.062.29-.093.101-.03.19-.061.29-.092.101-.031.19-.062.291-.082.1-.03.19-.05.29-.081.1-.031.19-.05.29-.082.101-.02.19-.05.29-.073.101-.02.19-.05.291-.073.1-.02.19-.042.29-.061.1-.02.19-.042.29-.062.1-.02.19-.03.29-.05.101-.02.19-.031.29-.051.101-.02.19-.031.291-.042.1-.011.19-.031.29-.042.1-.012.19-.02.29-.031l.29-.031c.101-.011.19-.011.29-.02.101-.011.19-.011.291-.02.1 0 .19-.01.29-.01.1 0 .19 0 .29-.012h.29c.101 0 .19 0 .291.011.1 0 .19.012.29.012.1.01.19.01.29.02.1.01.19.019.29.019l.29.03c.101.012.19.032.291.043.1.011.19.03.29.042.1.02.19.03.29.05.1.02.19.043.29.062.101.02.19.042.29.073.101.02.19.05.291.073.1.031.19.05.29.082.1.03.19.061.29.092.101.031.19.062.29.104.101.031.19.073.29.112l.291.124c.1.042.19.081.29.135.1.042.19.092.29.134.101.051.19.093.29.144.101.05.19.103.291.154.1.05.19.112.29.177.1.062.19.123.29.185.1.062.19.135.29.197.101.073.19.134.29.207.101.073.19.146.291.217.1.08.19.154.29.238.1.082.19.166.29.247l.29.27c.101.092.19.185.29.289.101.104.19.208.291.3.1.104.19.216.29.32.1.112.19.228.29.34.101.123.19.247.29.37l.291.393c.1.146.2.29.29.424.1.155.198.31.29.466.1.177.201.351.29.506.11.207.199.393.29.567.132.277.23.505.291.65.05.124.07.197.07.197s.07.02.21.073c.08.031.17.062.29.104.089.031.178.073.29.104.089.031.178.073.29.112.089.042.19.073.29.113.09.042.19.081.29.123.09.042.19.082.29.135.09.042.19.081.29.135.09.042.19.092.29.146.09.05.19.092.291.143.09.05.19.104.29.154.09.05.19.104.29.155.09.05.19.104.29.165.09.05.19.112.29.166.09.05.19.112.291.177.09.061.19.112.29.177.09.061.19.123.29.185.09.062.19.123.29.196.09.062.19.135.29.197l.291.208c.1.073.19.143.29.216.1.073.19.146.29.227.101.073.19.154.29.227.101.082.19.155.291.24.1.08.19.165.29.246.1.082.19.177.29.258.1.093.19.186.29.278.101.093.19.186.29.29l.291.3c.1.104.19.208.29.32.1.112.19.216.29.331.1.112.19.239.29.351.101.123.19.247.29.37.101.135.19.27.291.402.1.146.19.29.29.435.1.154.19.309.29.466.101.166.19.34.29.517.101.185.19.37.291.567.1.207.19.424.29.64.1.238.198.485.29.744a9.396 9.396 0 01.28.906c.108.37.198.733.29 1.084.109.474.209.929.29 1.353.43 2.394.33 4.225 0 5.578a7.899 7.899 0 01-.58 1.611c-.09.185-.19.362-.29.517-.101.154-.19.3-.291.423-.1.135-.19.247-.29.351a4.306 4.306 0 01-.58.548 1.65 1.65 0 01-.221.154 12.135 12.135 0 00.51-2.19 15.89 15.89 0 000-4.264 17.45 17.45 0 00-.29-1.642 18.67 18.67 0 00-.29-1.145c-.09-.309-.178-.62-.29-.93a12.57 12.57 0 00-.29-.805c-.09-.238-.179-.486-.29-.724-.081-.185-.16-.382-.24-.567-.012-.031-.031-.062-.04-.093-.089-.196-.178-.393-.29-.578-.089-.177-.19-.34-.29-.505-.09-.155-.19-.3-.29-.455-.09-.135-.19-.27-.29-.402a8.374 8.374 0 00-.29-.37 7.814 7.814 0 00-.29-.34 4.465 4.465 0 00-.291-.32 3.692 3.692 0 00-.29-.3 7.14 7.14 0 00-.29-.29 3.816 3.816 0 00-.29-.269c-.09-.081-.19-.177-.29-.258a6.668 6.668 0 00-.291-.247c-.09-.081-.19-.154-.29-.239a6.558 6.558 0 00-.29-.227c-.09-.073-.19-.143-.29-.216a2.73 2.73 0 00-.29-.208 4.52 4.52 0 00-.291-.197c-.1-.061-.19-.134-.29-.196-.1-.062-.19-.123-.29-.185-.101-.062-.19-.124-.29-.177-.101-.062-.19-.112-.291-.177a5.07 5.07 0 00-.29-.166c-.1-.05-.19-.112-.29-.165-.1-.05-.19-.104-.29-.155-.101-.05-.19-.104-.29-.154-.101-.05-.19-.104-.291-.143-.1-.05-.19-.093-.29-.146-.1-.05-.19-.093-.29-.135-.1-.042-.19-.093-.29-.135l-.29-.123-.291-.124-.29-.123c-.1-.042-.19-.082-.29-.112-.101-.043-.19-.073-.29-.113a3.075 3.075 0 00-.291-.104c-.1-.042-.198-.073-.29-.103-.1-.043-.198-.073-.29-.104a2.394 2.394 0 00-.29-.093c-.151-.042-.221-.073-.221-.073-.02-.042-.04-.081-.059-.123a8.975 8.975 0 00-.29-.568 8.165 8.165 0 00-.29-.536c-.09-.165-.19-.34-.29-.497-.09-.154-.19-.308-.29-.466-.09-.146-.19-.289-.29-.435a7.69 7.69 0 00-.29-.401 4.99 4.99 0 00-.291-.382 4.387 4.387 0 00-.29-.35 4.633 4.633 0 00-.29-.332 5.94 5.94 0 00-.29-.309 3.518 3.518 0 00-.291-.289 3.784 3.784 0 00-.29-.27c-.09-.08-.19-.176-.29-.258-.09-.081-.19-.154-.29-.238-.101-.073-.19-.143-.29-.216L54.854 9c-.1-.062-.19-.124-.29-.185-.1-.062-.19-.124-.29-.177-.1-.05-.19-.113-.29-.166-.101-.05-.19-.104-.29-.146a4.728 4.728 0 00-.291-.135l-.29-.123c-.1-.042-.19-.073-.29-.112-.101-.031-.19-.073-.29-.093-.101-.031-.19-.062-.291-.082-.1-.03-.19-.05-.29-.072-.1-.02-.19-.043-.29-.062-.1-.02-.19-.042-.29-.05a3.274 3.274 0 00-.29-.043l-.291-.03a2.52 2.52 0 00-.29-.02c-.1-.012-.19-.012-.29-.012-.1 0-.19 0-.29-.01h-.29c-.101 0-.19.01-.291.01-.1.012-.19.012-.29.02l-.29.03c-.101.012-.19.02-.29.043-.101.011-.19.03-.29.042-.101.02-.19.031-.291.05-.1.02-.19.043-.29.062-.1.02-.19.043-.29.073-.101.02-.19.05-.29.073-.101.031-.19.05-.291.082-.1.03-.19.062-.29.092-.1.031-.19.062-.29.104-.1.031-.19.073-.29.104-.101.042-.19.073-.29.112l-.291.124-.29.123c-.1.043-.19.093-.29.135-.101.05-.19.093-.29.146-.101.05-.19.104-.29.155-.101.05-.2.112-.291.165-.1.062-.201.112-.29.166a3.49 3.49 0 00-.29.185 3.28 3.28 0 00-.29.197c-.06.042-.09.061-.09.061-.061-.081-.131-.165-.201-.258-.09-.112-.179-.227-.29-.35-.09-.105-.179-.217-.29-.332-.09-.104-.19-.208-.29-.32-.09-.104-.19-.197-.29-.3-.09-.093-.19-.186-.291-.29a7.761 7.761 0 00-.29-.277c-.09-.082-.19-.177-.29-.27-.09-.081-.19-.166-.29-.258a6.668 6.668 0 00-.29-.247c-.09-.082-.19-.155-.291-.239a6.617 6.617 0 00-.29-.227c-.09-.073-.19-.143-.29-.216a2.715 2.715 0 00-.29-.208c-.09-.073-.19-.135-.291-.208-.09-.062-.19-.135-.29-.196a6.555 6.555 0 00-.29-.186 2.957 2.957 0 00-.29-.176c-.09-.062-.19-.113-.29-.177-.09-.05-.19-.113-.291-.166a7.66 7.66 0 00-.29-.154c-.09-.05-.19-.104-.29-.155-.09-.05-.19-.092-.29-.146-.09-.05-.19-.092-.29-.134-.09-.043-.19-.093-.291-.135-.09-.042-.19-.082-.29-.124-.09-.042-.19-.081-.29-.123-.09-.042-.19-.073-.29-.113-.09-.03-.19-.073-.29-.103-.09-.031-.19-.062-.291-.104-.09-.031-.19-.062-.29-.093-.09-.03-.19-.062-.29-.093-.09-.03-.19-.05-.29-.081-.09-.03-.19-.05-.291-.073-.09-.02-.19-.05-.29-.073-.09-.02-.19-.042-.29-.062-.09-.02-.19-.042-.29-.061-.09-.02-.19-.031-.29-.051-.09-.02-.19-.03-.291-.05-.09-.012-.19-.031-.29-.043-.09-.01-.19-.02-.29-.042-.09-.011-.19-.02-.29-.03-.09-.012-.19-.02-.29-.02-.09-.011-.19-.011-.291-.02-.09-.011-.19-.011-.29-.011-.09 0-.19-.011-.29-.011h-.581c-.09 0-.19.01-.29.01-.09 0-.19.012-.29.012-.09.011-.19.011-.29.02-.09.011-.19.02-.29.02l-.291.03c-.09.011-.19.02-.29.042-.09.012-.19.031-.29.042-.1.012-.19.031-.29.043-.09.02-.19.03-.29.05-.09.02-.19.042-.291.05-.09.02-.19.043-.29.062-.09.02-.19.043-.29.073-.101.02-.19.05-.29.073-.09.02-.19.05-.291.082-.09.03-.19.05-.29.081-.1.031-.19.062-.29.093-.09.03-.19.062-.29.092-.101.031-.19.062-.29.104-.09.031-.19.073-.291.104-.09.031-.19.073-.29.112-.1.043-.19.073-.29.113-.09.042-.19.081-.29.123-.09.042-.17.073-.26.113-.011 0-.02.01-.03.01-.101.043-.19.093-.291.136-.1.042-.19.092-.29.134-.1.05-.19.093-.29.146-.101.05-.19.104-.29.155-.101.05-.19.104-.29.154a3.59 3.59 0 00-.291.166c-.1.05-.19.112-.29.165-.1.062-.19.113-.29.177-.101.062-.19.124-.29.185a4.52 4.52 0 00-.291.197c-.1.062-.19.135-.29.196-.1.073-.19.135-.29.208-.1.073-.19.146-.29.216-.101.073-.19.146-.29.228-.101.081-.19.154-.291.238-.1.082-.19.166-.29.247-.1.082-.19.177-.29.259-.101.092-.19.176-.29.27-.101.092-.19.184-.29.277-.101.093-.19.197-.291.29-.1.103-.19.207-.29.3-.1.103-.19.216-.29.32-.101.112-.19.227-.29.33-.101.113-.19.24-.291.352-.1.123-.19.247-.29.37-.1.124-.19.258-.29.382-.1.135-.19.27-.29.401-.101.146-.19.29-.29.436-.101.154-.19.308-.291.454l-.29.486c-.1.177-.19.35-.29.516-.1.186-.19.371-.29.56-.101.196-.19.4-.29.597a22.088 22.088 0 00-.581 1.364l-.29.786c-.11.31-.199.61-.29.899-.11.37-.199.724-.291 1.052-.12.506-.22.95-.29 1.334-.15.817-.179 1.302-.179 1.302a.32.32 0 01-.1.02c-.1.02-.19.042-.29.062-.1.02-.19.042-.29.073-.101.02-.19.05-.29.073-.101.03-.19.05-.291.081-.1.03-.19.05-.29.081-.1.031-.19.062-.29.093-.101.031-.19.062-.29.093-.101.03-.19.073-.29.104-.101.042-.19.073-.291.112-.1.042-.19.073-.29.112l-.29.124c-.101.042-.19.092-.29.134-.101.051-.19.093-.291.146-.1.05-.19.104-.29.155-.1.05-.19.112-.29.165-.1.062-.19.113-.29.177-.101.062-.19.124-.29.186-.101.061-.19.134-.291.207-.1.073-.19.146-.29.216-.1.073-.19.155-.29.239-.1.081-.19.166-.29.258-.101.093-.19.186-.29.278l-.291.3c-.1.104-.19.217-.29.332-.1.112-.19.238-.29.362-.101.135-.19.258-.29.393-.101.146-.199.3-.291.444-.1.165-.198.34-.29.505-.1.196-.198.393-.29.59-.1.238-.199.474-.29.712a11.615 11.615 0 00-.581 2.322 14.196 14.196 0 000 3.955c.05.351.09.548.09.548-.031-.051-.06-.104-.09-.155-.1-.174-.198-.362-.29-.536-.11-.227-.198-.455-.29-.682a10.036 10.036 0 01-.277-.969z" fill="url(#paint0_linear)"/><defs><linearGradient id="paint0_linear" x1=".32" y1="17.827" x2="74.324" y2="17.827" gradientUnits="userSpaceOnUse"><stop stop-color="#4DB849"/><stop offset=".531" stop-color="#FFE500"/><stop offset="1" stop-color="#F6841F"/></linearGradient></defs></svg>