<svg width="72" height="46" fill="none" xmlns="http://www.w3.org/2000/svg"><path fill-rule="evenodd" clip-rule="evenodd" d="M1.487 43.94c.543.327 1.463.696 2.337.696 1.26 0 1.861-.638 1.861-1.482 0-.867-.505-1.313-1.783-1.81-1.755-.647-2.57-1.612-2.57-2.796 0-1.6 1.28-2.916 3.345-2.916.979 0 1.843.269 2.356.616l-.417 1.313a3.646 3.646 0 00-1.979-.597c-1.048 0-1.61.616-1.61 1.353 0 .826.562 1.194 1.824 1.7 1.658.637 2.54 1.504 2.54 2.975 0 1.762-1.337 2.995-3.596 2.995-1.057 0-2.035-.288-2.725-.697l.417-1.35zm14.066 1.484c-.454.229-1.484.576-2.78.576-2.918 0-4.82-2.029-4.82-5.074 0-3.056 2.035-5.294 5.207-5.294 1.037 0 1.957.269 2.444.538l-.398 1.372c-.417-.229-1.075-.468-2.035-.468-2.22 0-3.423 1.7-3.423 3.76 0 2.298 1.444 3.713 3.364 3.713.997 0 1.658-.247 2.16-.468l.281 1.345zm1.057-14.231h1.765V45.77H16.61V31.193zm4.83 9.634c0 2.179 1.203 3.82 2.917 3.82 1.677 0 2.936-1.622 2.936-3.86 0-1.682-.823-3.802-2.899-3.802-2.064 0-2.955 1.97-2.955 3.842zm7.656-.11c0 3.672-2.5 5.272-4.82 5.272-2.599 0-4.642-1.969-4.642-5.114 0-3.303 2.142-5.254 4.798-5.254 2.784.01 4.664 2.08 4.664 5.095zm9.317 2.329c0 1.044.019 1.95.077 2.725h-1.559l-.096-1.622h-.037A3.612 3.612 0 0133.599 46c-1.521 0-3.345-.885-3.345-4.347v-5.811h1.765v5.483c0 1.89.583 3.185 2.16 3.185 1.182 0 1.998-.845 2.316-1.663.097-.247.156-.576.156-.925v-6.09h1.764v7.214h-.002zm8.523-3.166c0-.229-.02-.538-.078-.756-.262-1.135-1.222-2.069-2.54-2.069-1.822 0-2.9 1.641-2.9 3.82 0 2.01.98 3.672 2.86 3.672 1.181 0 2.26-.825 2.577-2.16.06-.247.078-.498.078-.775V39.88h.003zm1.743-8.687v12.01c0 .884.04 1.89.078 2.566h-1.562l-.078-1.722h-.058c-.525 1.106-1.677 1.95-3.258 1.95-2.337 0-4.158-2.028-4.158-5.054-.019-3.304 1.998-5.314 4.343-5.314 1.503 0 2.482.716 2.918 1.501h.037v-5.94h1.738v.003zm1.319 13.513c0-.737.502-1.294 1.2-1.294s1.182.538 1.182 1.294c0 .737-.484 1.294-1.222 1.294-.674 0-1.16-.557-1.16-1.294z" fill="#2B2A29"/><path fill-rule="evenodd" clip-rule="evenodd" d="M53.557 38.935c0-1.172-.019-2.179-.078-3.104h1.54l.078 1.97h.06c.435-1.335 1.52-2.18 2.703-2.18.184 0 .32.019.484.04v1.7c-.185-.04-.358-.04-.602-.04-1.24 0-2.123.945-2.364 2.298-.04.247-.059.557-.059.845v5.294h-1.765v-6.823h.003zm13.649 4.111c0 1.044.02 1.95.078 2.725h-1.562l-.096-1.622h-.038A3.612 3.612 0 0162.39 46c-1.522 0-3.345-.885-3.345-4.347v-5.811h1.765v5.483c0 1.89.583 3.185 2.16 3.185 1.182 0 1.998-.845 2.316-1.663.097-.247.166-.576.166-.925v-6.09h1.765v7.214h-.01z" fill="#808285"/><path fill-rule="evenodd" clip-rule="evenodd" d="M.278 30.647A10.63 10.63 0 010 28.223c0-1.485.278-2.564.278-2.564.067-.465.163-.89.278-1.307.086-.296.171-.584.278-.861.086-.229.172-.447.278-.662a6.43 6.43 0 01.279-.543 6.16 6.16 0 01.278-.466 5.28 5.28 0 01.278-.406c.085-.129.182-.247.278-.366a8.024 8.024 0 01.556-.621 7.15 7.15 0 01.278-.267c.086-.088.182-.169.278-.247.086-.078.182-.148.279-.229.085-.07.181-.14.278-.207.096-.07.182-.129.278-.188.096-.06.182-.119.278-.178a4.86 4.86 0 01.278-.158c.096-.049.182-.1.278-.148.096-.049.182-.09.278-.14.097-.04.182-.089.278-.13l.279-.118c.096-.04.181-.07.278-.107.096-.03.182-.07.278-.1.096-.03.182-.06.278-.089.096-.03.182-.048.278-.078.096-.03.19-.048.278-.07.096-.018.19-.04.278-.059.105-.019.19-.04.278-.048.115-.02.201-.03.279-.04.096-.011.144-.02.144-.02s.019-.406.123-1.089c.056-.366.144-.82.278-1.337.078-.307.163-.643.278-1 .078-.267.171-.544.278-.832.086-.237.171-.484.278-.732.086-.218.172-.436.279-.654.085-.199.17-.395.278-.594.085-.178.181-.366.278-.543.085-.17.182-.337.278-.514.085-.159.182-.318.278-.476.086-.148.182-.296.278-.447a8.59 8.59 0 01.278-.425c.086-.14.182-.266.278-.406.086-.13.182-.259.278-.385a8.07 8.07 0 01.279-.366c.085-.118.181-.229.278-.347.085-.108.182-.218.278-.336.085-.108.182-.218.278-.318.086-.1.182-.207.278-.306.086-.1.182-.2.278-.296.086-.1.182-.189.278-.288.086-.089.182-.178.279-.277.085-.089.181-.178.278-.267.085-.088.181-.169.278-.258.085-.078.182-.159.278-.247.085-.078.182-.159.278-.237.085-.078.182-.148.278-.229.086-.07.182-.148.278-.218.086-.07.182-.137.278-.218.086-.07.182-.14.278-.207.086-.07.182-.137.279-.199.085-.07.181-.129.278-.199.085-.059.182-.129.278-.188.085-.06.182-.119.278-.178.085-.059.182-.118.278-.177.086-.06.182-.119.278-.178.086-.059.182-.107.278-.17.086-.058.182-.107.278-.158.086-.048.182-.108.278-.159.086-.048.182-.1.279-.148.085-.048.181-.1.278-.148.085-.048.182-.1.278-.14.085-.048.182-.088.278-.14.03-.01.056-.03.086-.04.066-.03.123-.059.19-.089.096-.04.181-.088.278-.129.096-.04.181-.078.278-.118l.278-.118c.096-.04.182-.078.278-.108.096-.04.182-.078.278-.108.096-.04.182-.07.278-.1.097-.029.182-.07.278-.099.097-.03.182-.059.278-.089.097-.03.182-.059.279-.088.096-.03.181-.049.278-.078.096-.03.181-.049.278-.078.096-.02.182-.049.278-.07.096-.02.182-.049.278-.07l.278-.06c.096-.018.182-.04.278-.059.097-.018.182-.04.278-.048.097-.019.182-.03.278-.048.097-.011.182-.03.279-.04.096-.012.181-.02.278-.03l.278-.03c.096-.01.182-.019.278-.019.096-.01.182-.019.278-.019.096-.01.182-.01.278-.018.096 0 .182-.011.278-.011.097 0 .182-.011.279-.011h.556c.096 0 .182.01.278.01.096 0 .182.012.278.012.096 0 .182.01.278.018.096.011.182.011.278.02.096.01.182.018.278.018l.279.03c.096.01.181.018.278.03.096.01.181.029.278.04.096.01.182.03.278.04.096.019.182.03.278.048.096.02.182.04.278.049.096.019.182.04.278.059.097.019.182.04.278.06.097.018.182.04.278.07.097.018.182.047.279.069.096.019.181.048.278.07.096.03.181.048.278.078.096.03.182.048.278.078.096.03.182.06.278.089l.278.089c.096.03.182.059.278.1.097.029.182.069.278.099.097.03.182.07.279.107.096.04.181.07.278.108.096.04.182.07.278.107.096.04.182.078.278.119l.278.118c.096.04.182.078.278.13.096.04.182.088.278.128.097.049.182.09.278.14.097.049.182.09.278.14.097.049.182.1.279.148.096.049.181.1.278.148.096.049.182.1.278.159.096.048.182.107.278.159.096.048.182.107.278.158.096.06.182.108.278.17.096.059.182.118.278.17.097.058.182.118.279.177.096.059.181.118.278.188.096.06.181.13.278.188l.278.2c.096.07.182.14.278.199.096.07.182.14.278.207.096.07.182.148.278.207.096.078.193.148.278.218.097.078.193.159.278.228.105.09.193.17.279.237.115.1.21.189.278.248.077.07.104.107.104.107.059-.018.104-.04.163-.059.096-.03.182-.07.278-.1.096-.029.182-.07.278-.099.097-.03.182-.06.279-.089.096-.03.181-.059.278-.088.096-.03.181-.06.278-.09.096-.029.182-.058.278-.077.096-.03.182-.049.278-.078.096-.03.182-.049.278-.078.096-.02.182-.049.278-.07.096-.02.182-.049.278-.07.097-.019.182-.04.278-.06.097-.018.182-.04.279-.059.096-.018.181-.03.278-.048.096-.019.181-.03.278-.048.096-.02.182-.03.278-.04.096-.012.182-.03.278-.041l.278-.03.278-.03c.097-.01.182-.01.278-.018.097-.01.182-.01.279-.019.096 0 .181-.01.278-.01.096 0 .182 0 .278-.011h.278c.096 0 .182 0 .278.01.096 0 .182.011.278.011.096.01.182.01.278.019.097.01.182.019.278.019l.278.03c.097.01.182.029.279.04.096.01.181.03.278.04.096.019.182.03.278.048l.278.06c.096.018.182.04.278.07.096.018.182.048.278.07.096.03.182.048.278.078.097.03.182.059.279.088.096.03.181.06.278.1.096.03.181.07.278.107.096.04.182.078.278.119.096.04.182.078.278.129.096.04.182.089.278.13l.278.136c.096.049.182.1.278.148.097.049.182.108.278.17.097.059.182.118.279.177.096.06.181.13.278.189.096.07.181.129.278.199.096.07.182.14.278.207l.278.228c.096.079.182.16.278.237l.278.258c.097.09.182.178.278.278.097.1.182.199.279.287.096.1.181.208.278.307.096.108.181.218.278.326.096.118.182.236.278.355l.278.376c.096.14.193.277.278.407.096.148.19.296.278.446.096.17.193.337.278.484.105.2.19.377.279.544.125.266.219.484.278.624.048.118.066.188.066.188s.067.02.201.07c.078.03.163.06.278.1.086.03.171.07.278.1.086.029.171.07.278.107.086.04.182.07.279.107.085.04.181.079.278.119.085.04.182.078.278.129.085.04.182.078.278.13.085.04.182.088.278.139.086.048.182.089.278.137.086.049.182.1.278.148.086.049.182.1.278.148.086.049.182.1.278.159.086.048.182.107.279.159.085.048.181.107.278.17.085.058.182.107.278.169.085.059.182.118.278.177.086.06.182.118.278.188.086.06.182.13.278.189.097.07.182.129.278.199.097.07.182.137.278.207.097.07.182.14.279.218.096.07.181.148.278.218.096.078.182.148.278.229.096.077.182.158.278.236.096.078.182.17.278.248.096.088.182.177.278.266.096.089.182.178.278.277l.278.288c.097.1.182.2.279.307.096.107.181.207.278.317.096.108.181.229.278.336.096.119.182.237.278.355.096.13.182.259.278.385.096.14.182.277.278.417.096.148.182.296.278.447.097.159.182.325.278.495.097.177.182.355.279.543.096.2.181.406.278.614.096.228.19.465.278.712.085.248.17.495.238.762.01.04.018.07.03.107.104.355.19.703.277 1.039.105.455.2.89.278 1.297.412 2.294.316 4.048 0 5.345a7.584 7.584 0 01-.556 1.544 4.52 4.52 0 01-.278.495c-.096.148-.182.288-.278.406a3.33 3.33 0 01-.278.337 4.097 4.097 0 01-.556.524c-.123.1-.212.148-.212.148.067-.199.134-.425.212-.702.104-.385.2-.85.278-1.396.152-1.09.211-2.464 0-4.087a16.558 16.558 0 00-.278-1.573 17.985 17.985 0 00-.279-1.098c-.085-.296-.17-.595-.278-.89a11.083 11.083 0 00-.278-.773c-.085-.228-.17-.465-.278-.694-.078-.177-.152-.366-.23-.543-.01-.03-.03-.06-.037-.089a5.732 5.732 0 00-.278-.554c-.086-.17-.182-.326-.279-.484-.085-.148-.181-.288-.278-.436a7.286 7.286 0 00-.278-.385c-.085-.118-.182-.237-.278-.355a7.581 7.581 0 00-.278-.325 4.253 4.253 0 00-.278-.307 3.515 3.515 0 00-.278-.288 6.802 6.802 0 00-.278-.277 3.654 3.654 0 00-.279-.258c-.085-.078-.181-.17-.278-.248a6.35 6.35 0 00-.278-.237c-.085-.078-.182-.148-.278-.228a6.38 6.38 0 00-.278-.218c-.086-.07-.182-.137-.278-.207a2.602 2.602 0 00-.278-.2 4.218 4.218 0 00-.278-.188c-.097-.059-.182-.129-.279-.188-.096-.06-.181-.118-.278-.178-.096-.059-.181-.118-.278-.169-.096-.06-.182-.108-.278-.17a4.885 4.885 0 00-.278-.158c-.096-.049-.182-.108-.278-.159-.096-.048-.182-.1-.278-.148-.096-.048-.182-.1-.278-.148-.097-.048-.182-.1-.278-.137-.097-.048-.182-.089-.279-.14a4.266 4.266 0 00-.278-.129c-.096-.04-.182-.089-.278-.13l-.278-.117c-.096-.04-.182-.079-.278-.119l-.278-.118c-.096-.04-.182-.078-.278-.108-.097-.04-.182-.07-.278-.107a2.863 2.863 0 00-.279-.1c-.096-.04-.19-.07-.278-.1-.096-.04-.19-.07-.278-.1-.104-.04-.2-.07-.278-.088a1.738 1.738 0 01-.211-.07l-.056-.118a8.602 8.602 0 00-.279-.544 7.777 7.777 0 00-.278-.514 7.608 7.608 0 00-.278-.476c-.085-.148-.182-.296-.278-.446-.085-.14-.182-.277-.278-.417a7.27 7.27 0 00-.278-.385 4.674 4.674 0 00-.278-.366 4.215 4.215 0 00-.278-.336 4.442 4.442 0 00-.278-.318 5.468 5.468 0 00-.279-.295 3.171 3.171 0 00-.278-.278 3.643 3.643 0 00-.278-.258c-.085-.078-.182-.17-.278-.247-.086-.078-.182-.148-.278-.229-.096-.07-.182-.137-.278-.207l-.278-.2c-.097-.058-.182-.118-.278-.177-.097-.059-.182-.118-.279-.17-.096-.048-.181-.107-.278-.158-.096-.048-.181-.1-.278-.14a4.258 4.258 0 00-.278-.129l-.278-.118c-.096-.04-.182-.07-.278-.108-.096-.03-.182-.07-.278-.089-.096-.03-.182-.059-.278-.078-.097-.03-.182-.048-.279-.07-.096-.018-.181-.04-.278-.059-.096-.019-.181-.04-.278-.048a3.3 3.3 0 00-.278-.04l-.278-.03a2.414 2.414 0 00-.278-.02c-.096-.01-.182-.01-.278-.01-.096 0-.182 0-.278-.01h-.278c-.097 0-.182.01-.279.01-.096.011-.181.011-.278.019l-.278.03c-.096.01-.182.018-.278.04-.096.01-.182.03-.278.04-.096.02-.182.03-.278.049-.096.019-.182.04-.278.059-.097.019-.182.04-.278.07-.097.019-.182.048-.279.07-.096.03-.181.048-.278.078-.096.03-.181.059-.278.089a2.87 2.87 0 00-.278.1c-.096.029-.182.07-.278.099-.096.04-.182.07-.278.107-.096.04-.182.078-.278.119-.097.04-.182.078-.278.118-.097.04-.182.089-.279.13-.096.048-.181.088-.278.14-.096.047-.181.099-.278.147-.096.048-.19.108-.278.159-.096.059-.192.107-.278.158a3.86 3.86 0 00-.278.178 3.452 3.452 0 00-.278.188l-.086.06c-.059-.078-.126-.16-.192-.248-.086-.108-.172-.218-.279-.336-.085-.1-.17-.207-.278-.318-.085-.1-.181-.199-.278-.306-.085-.1-.182-.189-.278-.288-.085-.089-.182-.178-.278-.277a6.685 6.685 0 00-.278-.267c-.086-.078-.182-.17-.278-.258-.086-.078-.182-.159-.278-.247a6.414 6.414 0 00-.279-.237c-.085-.078-.181-.148-.278-.229a6.311 6.311 0 00-.278-.218c-.085-.07-.182-.137-.278-.207a2.607 2.607 0 00-.278-.199c-.086-.07-.182-.13-.278-.199-.086-.06-.182-.13-.278-.188a6.3 6.3 0 00-.278-.178 2.853 2.853 0 00-.278-.17c-.086-.059-.182-.107-.279-.169-.085-.048-.181-.107-.278-.159a6.59 6.59 0 00-.278-.148 6.58 6.58 0 00-.278-.148c-.085-.048-.182-.088-.278-.14-.086-.048-.182-.088-.278-.129-.086-.04-.182-.088-.278-.129-.086-.04-.182-.078-.278-.118-.086-.04-.182-.078-.279-.118-.085-.04-.181-.07-.278-.108-.085-.03-.181-.07-.278-.1-.085-.03-.182-.059-.278-.1a8.725 8.725 0 00-.278-.088 7.095 7.095 0 00-.278-.089c-.086-.03-.182-.048-.278-.078-.086-.03-.182-.048-.278-.07-.086-.018-.182-.048-.279-.07-.085-.018-.181-.04-.278-.059-.085-.019-.181-.04-.278-.059-.085-.019-.182-.03-.278-.048-.085-.02-.182-.03-.278-.049-.086-.01-.182-.03-.278-.04-.086-.01-.182-.019-.278-.04-.086-.011-.182-.02-.278-.03a2.26 2.26 0 00-.278-.019c-.086-.01-.182-.01-.279-.019-.085-.01-.181-.01-.278-.01-.085 0-.182-.011-.278-.011h-.556c-.086 0-.182.01-.278.01-.086 0-.182.011-.278.011-.086.011-.182.011-.278.02-.086.01-.182.018-.279.018l-.278.03c-.085.01-.181.018-.278.04-.085.01-.182.03-.278.04-.096.011-.182.03-.278.04-.086.02-.182.03-.278.049-.086.019-.182.04-.278.048-.086.02-.182.04-.278.06-.086.018-.182.04-.279.07-.096.018-.181.048-.278.07-.085.018-.181.048-.278.078-.085.03-.182.048-.278.078-.096.03-.182.059-.278.088-.086.03-.182.06-.278.09a2.57 2.57 0 00-.278.099c-.086.03-.182.07-.278.1-.086.029-.182.07-.278.107-.097.04-.182.07-.279.107-.085.04-.181.078-.278.119-.085.04-.163.07-.248.107-.011 0-.02.011-.03.011-.096.04-.182.089-.278.13-.096.04-.182.088-.278.128-.096.049-.182.09-.278.14-.096.049-.182.1-.278.148-.097.049-.182.1-.279.148-.096.049-.181.1-.278.159-.096.048-.181.108-.278.159-.096.059-.182.107-.278.17-.096.058-.182.117-.278.177a4.121 4.121 0 00-.278.188c-.096.06-.182.13-.278.188l-.278.2c-.097.07-.182.14-.278.207-.097.07-.182.14-.279.217-.096.078-.181.148-.278.23-.096.077-.181.158-.278.236-.096.078-.182.17-.278.247l-.278.259c-.096.088-.182.177-.278.266-.096.089-.182.188-.278.277-.097.1-.182.2-.278.288-.097.1-.182.207-.278.307-.097.107-.182.217-.279.317-.096.108-.181.229-.278.336-.096.119-.182.237-.278.355-.096.119-.182.248-.278.366-.096.13-.182.258-.278.385-.096.14-.182.277-.278.417-.097.148-.182.296-.278.436-.097.159-.182.306-.278.465-.097.17-.182.337-.279.495-.096.178-.181.355-.278.535-.096.189-.182.385-.278.574a21.445 21.445 0 00-.556 1.307l-.278.753c-.105.296-.19.584-.278.861-.105.355-.19.694-.279 1.009-.114.484-.21.91-.278 1.278-.144.783-.17 1.248-.17 1.248a.308.308 0 01-.097.019c-.096.019-.182.04-.278.06-.096.018-.182.04-.278.069-.097.019-.182.049-.278.07-.097.03-.182.048-.278.078-.097.03-.182.048-.279.078-.096.03-.181.06-.278.089l-.278.089c-.096.03-.182.07-.278.1-.096.04-.182.07-.278.107-.096.04-.182.07-.278.107-.096.04-.182.078-.278.119-.097.04-.182.088-.278.129-.097.048-.182.089-.279.14-.096.048-.181.1-.278.148-.096.048-.182.107-.278.158-.096.06-.182.108-.278.17-.096.06-.182.118-.278.177-.096.06-.182.13-.278.2-.096.07-.182.14-.278.207-.097.07-.182.148-.278.228-.097.078-.182.16-.279.248-.096.089-.181.177-.278.266l-.278.288c-.096.1-.182.207-.278.317-.096.108-.182.23-.278.348l-.278.376c-.096.14-.19.288-.278.425-.097.159-.19.326-.278.484-.097.189-.19.377-.279.565-.096.229-.19.455-.278.684a11.133 11.133 0 00-.556 2.225 13.605 13.605 0 000 3.79c.048.336.086.525.086.525-.03-.049-.056-.1-.086-.148-.096-.167-.19-.347-.278-.514-.104-.218-.19-.436-.278-.654a9.616 9.616 0 01-.265-.928z" fill="url(#paint0_linear)"/><defs><linearGradient id="paint0_linear" x1="0" y1="17.084" x2="70.921" y2="17.084" gradientUnits="userSpaceOnUse"><stop stop-color="#4DB849"/><stop offset=".531" stop-color="#FFE500"/><stop offset="1" stop-color="#F6841F"/></linearGradient></defs></svg>