<svg width="79" height="51" viewBox="0 0 79 51" fill="none" xmlns="http://www.w3.org/2000/svg">
<path fill-rule="evenodd" clip-rule="evenodd" d="M1.6485 48.7155C2.25038 49.0794 3.27031 49.488 4.23984 49.488C5.63632 49.488 6.30343 48.7811 6.30343 47.8446C6.30343 46.8842 5.74306 46.389 4.32582 45.8373C2.38084 45.1214 1.47654 44.0507 1.47654 42.7383C1.47654 40.9636 2.89673 39.5051 5.18565 39.5051C6.27081 39.5051 7.22848 39.8034 7.79775 40.1882L7.33522 41.6437C6.91716 41.3693 6.14332 40.9815 5.14118 40.9815C3.97893 40.9815 3.3563 41.6646 3.3563 42.4818C3.3563 43.3975 3.97893 43.8061 5.37837 44.3668C7.21662 45.0737 8.19504 46.0341 8.19504 47.6656C8.19504 49.6192 6.71258 50.9853 4.20723 50.9853C3.03608 50.9853 1.95092 50.6661 1.18597 50.2128L1.6485 48.7155Z" fill="#2B2A29"/>
<path fill-rule="evenodd" clip-rule="evenodd" d="M17.2439 50.3619C16.7399 50.6154 15.5984 51.0002 14.1604 51.0002C10.9257 51.0002 8.81763 48.7513 8.81763 45.375C8.81763 41.9867 11.0739 39.5051 14.5903 39.5051C15.7407 39.5051 16.7607 39.8034 17.3003 40.1017L16.8585 41.6228C16.396 41.3693 15.6666 41.1038 14.6022 41.1038C12.1413 41.1038 10.8071 42.9888 10.8071 45.2735C10.8071 47.8207 12.4082 49.3896 14.537 49.3896C15.6429 49.3896 16.3752 49.1152 16.9326 48.8706L17.2439 50.3619Z" fill="#2B2A29"/>
<path fill-rule="evenodd" clip-rule="evenodd" d="M18.4151 34.5835H20.3719V50.7464H18.4151V34.5835Z" fill="#2B2A29"/>
<path fill-rule="evenodd" clip-rule="evenodd" d="M23.7698 45.2646C23.7698 47.6805 25.104 49.4999 27.0045 49.4999C28.8635 49.4999 30.26 47.7014 30.26 45.2198C30.26 43.3557 29.3468 41.0054 27.046 41.0054C24.7571 41.0054 23.7698 43.1886 23.7698 45.2646ZM32.2583 45.1423C32.2583 49.2136 29.4861 50.9882 26.9155 50.9882C24.0336 50.9882 21.7684 48.8049 21.7684 45.3182C21.7684 41.6556 24.1433 39.4932 27.0875 39.4932C30.174 39.5051 32.2583 41.7987 32.2583 45.1423Z" fill="#2B2A29"/>
<path fill-rule="evenodd" clip-rule="evenodd" d="M42.5881 47.725C42.5881 48.8823 42.6089 49.8874 42.6741 50.7464H40.9456L40.8388 48.9479H40.7973C40.314 49.8307 39.1518 50.9999 37.2513 50.9999C35.5642 50.9999 33.5421 50.0187 33.5421 46.18V39.7375H35.499V45.8161C35.499 47.9129 36.1453 49.3476 37.8946 49.3476C39.2051 49.3476 40.1095 48.411 40.4623 47.5043C40.569 47.2299 40.6342 46.866 40.6342 46.4783V39.7256H42.5911V47.725H42.5881Z" fill="#2B2A29"/>
<path fill-rule="evenodd" clip-rule="evenodd" d="M52.0373 44.2145C52.0373 43.9609 52.0165 43.6179 51.9513 43.3764C51.6607 42.1177 50.5963 41.0827 49.1346 41.0827C47.1155 41.0827 45.9207 42.9021 45.9207 45.318C45.9207 47.5461 47.0058 49.3893 49.0902 49.3893C50.4007 49.3893 51.5955 48.4737 51.9483 46.9943C52.0136 46.7199 52.0343 46.4425 52.0343 46.1353V44.2145H52.0373ZM53.9704 34.5835V47.898C53.9704 48.8793 54.0149 49.9948 54.0564 50.7435H52.3249L52.2389 48.8346H52.1737C51.5926 50.0604 50.3147 50.997 48.5624 50.997C45.9711 50.997 43.952 48.7481 43.952 45.3926C43.9312 41.7299 46.1668 39.5019 48.767 39.5019C50.4333 39.5019 51.5184 40.2953 52.0017 41.1662H52.0432V34.5806H53.9704V34.5835Z" fill="#2B2A29"/>
<path fill-rule="evenodd" clip-rule="evenodd" d="M55.4321 49.5653C55.4321 48.748 55.9895 48.1306 56.7633 48.1306C57.5372 48.1306 58.0739 48.7271 58.0739 49.5653C58.0739 50.3825 57.5372 50.9999 56.7189 50.9999C55.9717 50.9999 55.4321 50.3825 55.4321 49.5653Z" fill="#2B2A29"/>
<path fill-rule="evenodd" clip-rule="evenodd" d="M59.3785 43.1678C59.3785 41.8673 59.3577 40.7518 59.2925 39.7258H61.0003L61.0863 41.9091H61.1515C61.6348 40.4297 62.8385 39.4932 64.149 39.4932C64.3536 39.4932 64.5048 39.514 64.6857 39.5379V41.4229C64.4811 41.3782 64.2884 41.3782 64.0186 41.3782C62.6428 41.3782 61.6644 42.4251 61.3976 43.9254C61.3531 44.1998 61.3323 44.5428 61.3323 44.8619V50.7317H59.3755V43.1678H59.3785Z" fill="#808285"/>
<path fill-rule="evenodd" clip-rule="evenodd" d="M74.5114 47.725C74.5114 48.8823 74.5322 49.8874 74.5974 50.7464H72.8659L72.7591 48.9479H72.7176C72.2343 49.8307 71.0721 50.9999 69.1716 50.9999C67.4845 50.9999 65.4625 50.0187 65.4625 46.18V39.7375H67.4193V45.8161C67.4193 47.9129 68.0657 49.3476 69.815 49.3476C71.1255 49.3476 72.0298 48.411 72.3826 47.5043C72.4893 47.2299 72.5664 46.866 72.5664 46.4783V39.7256H74.5233V47.725H74.5114Z" fill="#808285"/>
<path fill-rule="evenodd" clip-rule="evenodd" d="M0.308352 33.9782C0.0859827 33.0356 0 32.114 0 31.2908C0 29.6444 0.308352 28.4484 0.308352 28.4484C0.382475 27.9324 0.489212 27.4611 0.616703 26.9988C0.711581 26.6707 0.806458 26.3516 0.925055 26.0444C1.01993 25.7908 1.11481 25.5492 1.23341 25.3106C1.32828 25.1018 1.43502 24.8931 1.54176 24.7081C1.63664 24.5322 1.74337 24.3562 1.85011 24.1921C1.94499 24.037 2.05172 23.8849 2.15846 23.7418C2.25334 23.5986 2.36008 23.4674 2.46681 23.3361C2.56169 23.2168 2.66843 23.0945 2.77516 22.9752C2.87004 22.8649 2.97678 22.7545 3.08352 22.6471C3.17839 22.5487 3.28513 22.4503 3.39187 22.3519C3.48675 22.2534 3.59348 22.1639 3.70022 22.0775C3.7951 21.991 3.90183 21.9134 4.00857 21.8239C4.10345 21.7464 4.21019 21.6688 4.31692 21.5943C4.42366 21.5167 4.51854 21.4511 4.62527 21.3855C4.73201 21.3199 4.82689 21.2542 4.93363 21.1886C5.04036 21.123 5.13524 21.0693 5.24198 21.0127C5.34872 20.959 5.44359 20.9023 5.55033 20.8486C5.65707 20.7949 5.75194 20.7502 5.85868 20.6935C5.96542 20.6488 6.0603 20.5951 6.16703 20.5503C6.27377 20.5056 6.36865 20.4638 6.47538 20.4191C6.58212 20.3744 6.677 20.3416 6.78374 20.2998C6.89047 20.267 6.98535 20.2223 7.09209 20.1894C7.19883 20.1566 7.2937 20.1238 7.40044 20.091C7.50718 20.0582 7.60205 20.0373 7.70879 20.0045C7.81553 19.9717 7.9193 19.9508 8.01714 19.927C8.12388 19.9061 8.22765 19.8822 8.32549 19.8614C8.44113 19.8405 8.536 19.8166 8.63385 19.8077C8.76134 19.7868 8.85622 19.7749 8.9422 19.7629C9.04894 19.751 9.1023 19.7421 9.1023 19.7421C9.1023 19.7421 9.12306 19.2917 9.23869 18.5341C9.30095 18.1284 9.3988 17.6244 9.54704 17.0517C9.63302 16.7117 9.7279 16.3389 9.85539 15.9422C9.94138 15.6469 10.0451 15.3397 10.1637 15.0205C10.2586 14.7581 10.3535 14.4837 10.4721 14.2093C10.567 13.9677 10.6619 13.7261 10.7804 13.4845C10.8753 13.2638 10.9702 13.046 11.0888 12.8253C11.1837 12.6285 11.2904 12.4197 11.3972 12.2228C11.492 12.0349 11.5988 11.85 11.7055 11.6531C11.8004 11.4772 11.9071 11.3012 12.0139 11.1252C12.1087 10.9612 12.2155 10.7971 12.3222 10.6301C12.4171 10.475 12.5238 10.311 12.6306 10.1588C12.7254 10.0038 12.8322 9.86357 12.9389 9.70847C13.0338 9.5653 13.1405 9.42214 13.2473 9.28195C13.3421 9.15072 13.4489 9.00755 13.5556 8.87632C13.6505 8.74508 13.7572 8.62279 13.864 8.49156C13.9588 8.37225 14.0656 8.24996 14.1723 8.11873C14.2672 7.99942 14.3739 7.87713 14.4807 7.76678C14.5755 7.65642 14.6823 7.53711 14.789 7.42676C14.8839 7.3164 14.9906 7.20604 15.0974 7.09867C15.1922 6.98831 15.299 6.88988 15.4057 6.77952C15.5006 6.6811 15.6073 6.58267 15.7141 6.47231C15.809 6.37389 15.9157 6.27546 16.0224 6.17703C16.1173 6.07861 16.224 5.98913 16.3308 5.8907C16.4257 5.8042 16.5324 5.71473 16.6391 5.6163C16.734 5.5298 16.8407 5.44032 16.9475 5.35383C17.0424 5.26733 17.1491 5.18978 17.2558 5.1003C17.3507 5.02275 17.4574 4.93626 17.5642 4.85871C17.6591 4.78116 17.7658 4.70659 17.8725 4.61712C17.9674 4.53957 18.0742 4.46202 18.1809 4.38745C18.2758 4.3099 18.3825 4.23534 18.4892 4.16674C18.5841 4.08919 18.6909 4.02357 18.7976 3.94602C18.8925 3.88041 18.9992 3.80286 19.1059 3.73724C19.2008 3.67162 19.3076 3.606 19.4143 3.54039C19.5092 3.47477 19.6159 3.40915 19.7226 3.34353C19.8175 3.27791 19.9243 3.2123 20.031 3.14668C20.1259 3.08106 20.2326 3.02737 20.3393 2.95877C20.4342 2.89315 20.541 2.83947 20.6477 2.7828C20.7426 2.72911 20.8493 2.66349 20.9561 2.60682C21.0509 2.55313 21.1577 2.49646 21.2644 2.44278C21.3593 2.38909 21.466 2.33242 21.5728 2.27873C21.6676 2.22504 21.7744 2.16837 21.8811 2.12364C21.976 2.06995 22.0827 2.02521 22.1895 1.96854C22.2221 1.95661 22.2517 1.93573 22.2843 1.9238C22.3585 1.89099 22.4207 1.85818 22.4948 1.82537C22.6016 1.78063 22.6965 1.72694 22.8032 1.68221C22.9099 1.63747 23.0048 1.59571 23.1115 1.55097C23.2183 1.50623 23.3132 1.46447 23.4199 1.41973C23.5266 1.37499 23.6215 1.33324 23.7283 1.30043C23.835 1.25569 23.9299 1.21393 24.0366 1.18112C24.1433 1.13638 24.2382 1.10357 24.345 1.07077C24.4517 1.03796 24.5466 0.993217 24.6533 0.960408C24.76 0.927599 24.8549 0.89479 24.9617 0.861981C25.0684 0.829172 25.1633 0.796363 25.27 0.763554C25.3767 0.730745 25.4716 0.709867 25.5784 0.677058C25.6851 0.644249 25.78 0.62337 25.8867 0.590561C25.9935 0.569683 26.0883 0.536874 26.1951 0.513013C26.3018 0.492134 26.3967 0.459325 26.5034 0.435464C26.6102 0.414586 26.705 0.390725 26.8118 0.369846C26.9185 0.348968 27.0134 0.325107 27.1201 0.304229C27.2269 0.28335 27.3217 0.259489 27.4285 0.250541C27.5352 0.229663 27.6301 0.217732 27.7368 0.196854C27.8436 0.184923 27.9384 0.164045 28.0452 0.152114C28.1519 0.140184 28.2468 0.131236 28.3535 0.119305C28.4603 0.107375 28.5551 0.0984269 28.6619 0.0864964C28.7686 0.0745658 28.8635 0.0656179 28.9702 0.0656179C29.077 0.0536874 29.1718 0.0447395 29.2786 0.0447395C29.3853 0.032809 29.4802 0.032809 29.5869 0.0238611C29.6937 0.0238611 29.7885 0.0119305 29.8953 0.0119305C30.002 0.0119305 30.0969 0 30.2036 0C30.3104 0 30.4053 0 30.512 0C30.6187 0 30.7136 0 30.8203 0C30.9271 0 31.022 0.0119305 31.1287 0.0119305C31.2354 0.0119305 31.3303 0.0238611 31.437 0.0238611C31.5438 0.0238611 31.6387 0.0357916 31.7454 0.0447395C31.8521 0.05667 31.947 0.05667 32.0537 0.0656179C32.1605 0.0775485 32.2554 0.0864964 32.3621 0.0864964C32.4688 0.0984269 32.5637 0.107375 32.6705 0.119305C32.7772 0.131236 32.8721 0.140184 32.9788 0.152114C33.0855 0.164045 33.1804 0.184923 33.2872 0.196854C33.3939 0.208784 33.4888 0.229663 33.5955 0.241593C33.7022 0.262472 33.7971 0.274402 33.9039 0.295281C34.0106 0.316159 34.1055 0.34002 34.2122 0.348968C34.3189 0.369847 34.4138 0.393708 34.5206 0.414586C34.6273 0.435464 34.7222 0.459326 34.8289 0.480204C34.9356 0.501082 35.0305 0.524943 35.1373 0.557752C35.244 0.578631 35.3389 0.61144 35.4456 0.635301C35.5524 0.656179 35.6472 0.688988 35.754 0.712849C35.8607 0.745658 35.9556 0.766537 36.0623 0.799346C36.1691 0.832155 36.2639 0.853033 36.3707 0.885842C36.4774 0.918651 36.5723 0.95146 36.679 0.984269C36.7858 1.01708 36.8806 1.04989 36.9874 1.0827C37.0941 1.1155 37.189 1.14831 37.2957 1.19305C37.4025 1.22586 37.4973 1.2706 37.6041 1.30341C37.7108 1.33622 37.8057 1.38096 37.9124 1.42272C38.0192 1.46746 38.114 1.50026 38.2208 1.54202C38.3275 1.58676 38.4224 1.61957 38.5291 1.66133C38.6359 1.70607 38.7307 1.74782 38.8375 1.79256C38.9442 1.8373 39.0391 1.87906 39.1458 1.9238C39.2526 1.96854 39.3475 2.01029 39.4542 2.06696C39.5609 2.1117 39.6558 2.16539 39.7625 2.21013C39.8693 2.26382 39.9642 2.30856 40.0709 2.36523C40.1776 2.41892 40.2725 2.46365 40.3792 2.52032C40.486 2.57401 40.5809 2.63068 40.6876 2.68437C40.7943 2.73806 40.8892 2.79473 40.9959 2.84841C41.1027 2.9021 41.1976 2.95877 41.3043 3.02439C41.411 3.07808 41.5059 3.1437 41.6126 3.20037C41.7194 3.25405 41.8143 3.31967 41.921 3.37634C42.0277 3.44196 42.1226 3.49565 42.2294 3.56425C42.3361 3.62986 42.431 3.69548 42.5377 3.75215C42.6444 3.81777 42.7393 3.88339 42.8461 3.94901C42.9528 4.01462 43.0477 4.08024 43.1544 4.15779C43.2611 4.22341 43.356 4.30096 43.4628 4.36657C43.5695 4.44412 43.6644 4.50974 43.7711 4.58729C43.8778 4.66484 43.9727 4.74239 44.0795 4.808C44.1862 4.88555 44.2811 4.9631 44.3878 5.03767C44.4946 5.11522 44.5894 5.20171 44.6962 5.26733C44.8029 5.35383 44.9096 5.43138 45.0045 5.50892C45.1113 5.59542 45.218 5.6849 45.3129 5.76245C45.4285 5.86087 45.5263 5.95035 45.6212 6.02492C45.7487 6.13528 45.8554 6.2337 45.9296 6.29932C46.0156 6.37687 46.0452 6.41863 46.0452 6.41863C46.1104 6.39775 46.1608 6.37389 46.2261 6.35301C46.3328 6.3202 46.4277 6.27546 46.5344 6.24265C46.6412 6.20984 46.736 6.1651 46.8428 6.13229C46.9495 6.09948 47.0444 6.06668 47.1511 6.03387C47.2579 6.00106 47.3527 5.96825 47.4595 5.93544C47.5662 5.90263 47.6611 5.86982 47.7678 5.83701C47.8746 5.8042 47.9694 5.77139 48.0762 5.75052C48.1829 5.71771 48.2778 5.69683 48.3845 5.66402C48.4913 5.63121 48.5861 5.61033 48.6929 5.57752C48.7996 5.55665 48.8945 5.52384 49.0012 5.49998C49.108 5.4791 49.2028 5.44629 49.3096 5.42243C49.4163 5.40155 49.5112 5.37769 49.6179 5.35681C49.7247 5.33593 49.8195 5.31207 49.9263 5.29119C50.033 5.27031 50.1279 5.25838 50.2346 5.2375C50.3414 5.21663 50.4362 5.20469 50.543 5.18382C50.6497 5.16294 50.7446 5.15101 50.8513 5.13908C50.9581 5.12715 51.053 5.10627 51.1597 5.09434C51.2664 5.08241 51.3613 5.07346 51.468 5.06153C51.5748 5.0496 51.6697 5.04065 51.7764 5.02872C51.8831 5.01679 51.978 5.01679 52.0847 5.00784C52.1915 4.99591 52.2864 4.99591 52.3931 4.98696C52.4998 4.98696 52.5947 4.97503 52.7015 4.97503C52.8082 4.97503 52.9031 4.97503 53.0098 4.9631C53.1165 4.9631 53.2114 4.9631 53.3182 4.9631C53.4249 4.9631 53.5198 4.9631 53.6265 4.97503C53.7332 4.97503 53.8281 4.98696 53.9349 4.98696C54.0416 4.99889 54.1365 4.99889 54.2432 5.00784C54.3499 5.01977 54.4448 5.02872 54.5516 5.02872C54.6583 5.04065 54.7532 5.0496 54.8599 5.06153C54.9666 5.07346 55.0615 5.09434 55.1683 5.10627C55.275 5.1182 55.3699 5.13908 55.4766 5.15101C55.5834 5.17189 55.6782 5.18382 55.785 5.20469C55.8917 5.22557 55.9866 5.24943 56.0933 5.27031C56.2001 5.29119 56.2949 5.31505 56.4017 5.34786C56.5084 5.36874 56.6033 5.40155 56.71 5.42541C56.8168 5.45822 56.9116 5.4791 57.0184 5.51191C57.1251 5.54471 57.22 5.57752 57.3267 5.61033C57.4335 5.64314 57.5283 5.67595 57.6351 5.72069C57.7418 5.7535 57.8367 5.79824 57.9434 5.84C58.0502 5.88474 58.145 5.92649 58.2518 5.97123C58.3585 6.01597 58.4534 6.05773 58.5601 6.1144C58.6669 6.15914 58.7617 6.21282 58.8685 6.25756C58.9752 6.31125 59.0701 6.35599 59.1768 6.40968C59.2836 6.46337 59.3785 6.52004 59.4852 6.57372C59.5919 6.62741 59.6868 6.69303 59.7935 6.76163C59.9003 6.82725 59.9952 6.89286 60.1019 6.95848C60.2086 7.0241 60.3035 7.10165 60.4102 7.16727C60.517 7.24482 60.6119 7.31043 60.7186 7.38798C60.8253 7.46553 60.9202 7.54308 61.0269 7.61764C61.1337 7.70414 61.2286 7.78169 61.3353 7.87117C61.442 7.95766 61.5369 8.04714 61.6437 8.13364C61.7504 8.23207 61.8453 8.32155 61.952 8.41997C62.0587 8.5184 62.1536 8.61683 62.2603 8.72719C62.3671 8.83754 62.462 8.9479 62.5687 9.04633C62.6754 9.15668 62.7703 9.27599 62.8771 9.38635C62.9838 9.50565 63.0787 9.62794 63.1854 9.74724C63.2921 9.87848 63.387 10.0097 63.4938 10.141C63.6005 10.2841 63.7043 10.4273 63.8021 10.5585C63.9088 10.7136 64.0156 10.8657 64.1105 11.0089C64.2172 11.1729 64.321 11.337 64.4188 11.504C64.5256 11.6919 64.6323 11.8768 64.7272 12.0409C64.8428 12.2616 64.9377 12.4585 65.0355 12.6434C65.1749 12.9387 65.2786 13.1803 65.3439 13.3354C65.3972 13.4666 65.418 13.5441 65.418 13.5441C65.418 13.5441 65.4921 13.565 65.6404 13.6217C65.7263 13.6545 65.8212 13.6873 65.9487 13.732C66.0436 13.7649 66.1385 13.8096 66.2571 13.8424C66.3519 13.8752 66.4468 13.9199 66.5654 13.9617C66.6603 14.0064 66.767 14.0393 66.8738 14.081C66.9686 14.1258 67.0754 14.1675 67.1821 14.2122C67.277 14.257 67.3837 14.2987 67.4905 14.3554C67.5854 14.4002 67.6921 14.4419 67.7988 14.4986C67.8937 14.5433 68.0004 14.597 68.1072 14.6537C68.2021 14.7074 68.3088 14.7521 68.4155 14.8058C68.5104 14.8595 68.6171 14.9161 68.7239 14.9698C68.8187 15.0235 68.9255 15.0802 69.0322 15.1339C69.1271 15.1876 69.2338 15.2442 69.3406 15.3099C69.4355 15.3635 69.5422 15.4292 69.6489 15.4858C69.7438 15.5395 69.8505 15.6051 69.9573 15.6737C70.0522 15.7394 70.1589 15.793 70.2656 15.8616C70.3605 15.9273 70.4672 15.9929 70.574 16.0585C70.6689 16.1241 70.7756 16.1897 70.8823 16.2673C70.9772 16.3329 71.084 16.4104 71.1907 16.4761C71.2974 16.5536 71.3923 16.6192 71.499 16.6968C71.6058 16.7743 71.7007 16.8489 71.8074 16.9264C71.9141 17.004 72.009 17.0815 72.1157 17.168C72.2225 17.2456 72.3174 17.3321 72.4241 17.4096C72.5308 17.4961 72.6257 17.5737 72.7325 17.6632C72.8392 17.7497 72.9341 17.8391 73.0408 17.9256C73.1475 18.0121 73.2424 18.1135 73.3492 18.2C73.4559 18.2985 73.5508 18.3969 73.6575 18.4953C73.7642 18.5937 73.8591 18.6922 73.9659 18.8025C74.0726 18.9129 74.1675 19.0113 74.2742 19.1217C74.3809 19.232 74.4758 19.3424 74.5826 19.4617C74.6893 19.581 74.7842 19.6913 74.8909 19.8136C74.9976 19.9329 75.0925 20.0672 75.1993 20.1865C75.306 20.3177 75.4009 20.4489 75.5076 20.5802C75.6143 20.7233 75.7092 20.8665 75.816 21.0067C75.9227 21.1618 76.0176 21.3139 76.1243 21.469C76.2311 21.633 76.3259 21.7971 76.4327 21.9641C76.5394 22.1401 76.6343 22.325 76.741 22.5129C76.8478 22.7098 76.9426 22.9066 77.0494 23.1154C77.1561 23.3361 77.251 23.5658 77.3577 23.7954C77.4645 24.049 77.5682 24.3114 77.6661 24.5858C77.7609 24.8602 77.8558 25.1347 77.9299 25.4299C77.9418 25.4747 77.9507 25.5075 77.9626 25.5492C78.0782 25.9429 78.1731 26.3277 78.2709 26.7005C78.3865 27.2046 78.4933 27.6878 78.5793 28.1382C79.0359 30.6823 78.9291 32.627 78.5793 34.0647C78.4933 34.4256 78.3895 34.7656 78.2709 35.0638C78.176 35.3174 78.0693 35.556 77.9626 35.7767C77.8677 35.9735 77.761 36.1614 77.6542 36.3255C77.5475 36.4895 77.4526 36.6446 77.3459 36.7759C77.2391 36.919 77.1442 37.0383 77.0375 37.1487C76.9308 37.268 76.827 37.3784 76.7292 37.4678C76.6135 37.5782 76.5068 37.6647 76.4208 37.7303C76.2844 37.8407 76.1866 37.8944 76.1866 37.8944C76.2607 37.6736 76.3348 37.4231 76.4208 37.1159C76.5364 36.6894 76.6432 36.1734 76.7292 35.5679C76.8982 34.3599 76.9634 32.8358 76.7292 31.0373C76.655 30.4765 76.5602 29.8949 76.4208 29.2924C76.3348 28.8987 76.2311 28.4901 76.1125 28.0755C76.0176 27.7474 75.9227 27.4164 75.8041 27.0883C75.7092 26.8019 75.6143 26.5186 75.4958 26.2323C75.4009 25.9787 75.306 25.7163 75.1874 25.4627C75.1014 25.2659 75.0184 25.0571 74.9324 24.8602C74.9206 24.8274 74.8998 24.7946 74.8909 24.7618C74.796 24.553 74.7012 24.3443 74.5826 24.1474C74.4877 23.9595 74.3809 23.7865 74.2742 23.6105C74.1793 23.4465 74.0726 23.2914 73.9659 23.1273C73.871 22.9842 73.7642 22.841 73.6575 22.7008C73.5626 22.5696 73.4559 22.4384 73.3492 22.3071C73.2543 22.1878 73.1475 22.0655 73.0408 21.9462C72.9459 21.8269 72.8392 21.7166 72.7325 21.6062C72.6376 21.4958 72.5308 21.3855 72.4241 21.2871C72.3292 21.1886 72.2225 21.0783 72.1157 20.9798C72.0209 20.8814 71.9141 20.783 71.8074 20.6935C71.7125 20.607 71.6058 20.5056 71.499 20.4191C71.4042 20.3326 71.2974 20.2431 71.1907 20.1566C71.0958 20.0701 70.9891 19.9926 70.8823 19.9031C70.7875 19.8256 70.6807 19.7391 70.574 19.6615C70.4791 19.584 70.3724 19.5094 70.2656 19.4319C70.1708 19.3543 70.064 19.2768 69.9573 19.2111C69.8505 19.1336 69.7557 19.068 69.6489 19.0024C69.5422 18.9367 69.4473 18.8592 69.3406 18.7936C69.2338 18.728 69.139 18.6623 69.0322 18.5967C68.9255 18.5311 68.8306 18.4655 68.7239 18.4088C68.6171 18.3432 68.5223 18.2895 68.4155 18.2209C68.3088 18.1553 68.2139 18.1016 68.1072 18.0449C68.0004 17.9912 67.9056 17.9256 67.7988 17.869C67.6921 17.8153 67.5972 17.7586 67.4905 17.7049C67.3837 17.6512 67.2888 17.5946 67.1821 17.5409C67.0754 17.4872 66.9805 17.4305 66.8738 17.3888C66.767 17.3351 66.6722 17.2903 66.5654 17.2337C66.4587 17.18 66.3638 17.1352 66.2571 17.0905C66.1503 17.0457 66.0555 16.9921 65.9487 16.9473C65.842 16.9026 65.7471 16.8608 65.6404 16.8161C65.5336 16.7713 65.4387 16.7296 65.332 16.6849C65.2253 16.6401 65.1304 16.5984 65.0237 16.5536C64.9169 16.5089 64.822 16.4671 64.7153 16.4343C64.6086 16.3896 64.5137 16.3568 64.407 16.315C64.3002 16.2703 64.2053 16.2375 64.0986 16.2046C63.9919 16.1599 63.8881 16.1271 63.7902 16.0943C63.6835 16.0496 63.5797 16.0167 63.4819 15.9839C63.3663 15.9392 63.2595 15.9064 63.1735 15.8855C63.0134 15.8408 62.9393 15.808 62.9393 15.808C62.9186 15.7632 62.8978 15.7215 62.8771 15.6767C62.7822 15.4679 62.6754 15.2711 62.5687 15.0742C62.4738 14.8774 62.3671 14.6895 62.2603 14.5045C62.1655 14.3286 62.0587 14.1436 61.952 13.9766C61.8571 13.8126 61.7504 13.6485 61.6437 13.4815C61.5488 13.3264 61.442 13.1743 61.3353 13.0192C61.2404 12.876 61.1337 12.7329 61.0269 12.5927C60.9321 12.4495 60.8253 12.3183 60.7186 12.187C60.6237 12.0558 60.517 11.9335 60.4102 11.8142C60.3154 11.6949 60.2086 11.5726 60.1019 11.4623C60.007 11.3519 59.9003 11.2415 59.7935 11.1342C59.6987 11.0238 59.5919 10.9254 59.4852 10.827C59.3903 10.7285 59.2836 10.6301 59.1768 10.5406C59.082 10.4541 58.9752 10.3527 58.8685 10.2662C58.7736 10.1797 58.6669 10.1022 58.5601 10.0127C58.4534 9.93515 58.3585 9.86059 58.2518 9.78304C58.145 9.70549 58.0502 9.63987 57.9434 9.56232C57.8367 9.4967 57.7418 9.43109 57.6351 9.36547C57.5283 9.29985 57.4335 9.23423 57.3267 9.17756C57.22 9.12387 57.1251 9.05826 57.0184 9.00159C56.9116 8.9479 56.8168 8.89123 56.71 8.84649C56.6033 8.7928 56.5084 8.74806 56.4017 8.70332C56.2949 8.65858 56.2001 8.61683 56.0933 8.57209C55.9866 8.52735 55.8917 8.49454 55.785 8.45278C55.6782 8.41997 55.5834 8.37523 55.4766 8.35436C55.3699 8.32155 55.275 8.28874 55.1683 8.26786C55.0615 8.23505 54.9666 8.21417 54.8599 8.19031C54.7532 8.16943 54.6583 8.14557 54.5516 8.12469C54.4448 8.10381 54.3499 8.07995 54.2432 8.07101C54.1365 8.05013 54.0416 8.0382 53.9349 8.02627C53.8281 8.01434 53.7332 8.00539 53.6265 7.99346C53.5198 7.98153 53.4249 7.97258 53.3182 7.97258C53.2114 7.96065 53.1165 7.96065 53.0098 7.96065C52.9031 7.96065 52.8082 7.96065 52.7015 7.94872C52.5947 7.94872 52.4998 7.94872 52.3931 7.94872C52.2864 7.94872 52.1915 7.96065 52.0847 7.96065C51.978 7.97258 51.8831 7.97258 51.7764 7.98153C51.6697 7.99346 51.5748 8.0024 51.468 8.01433C51.3613 8.02627 51.2664 8.03521 51.1597 8.05907C51.053 8.071 50.9581 8.09188 50.8513 8.10381C50.7446 8.12469 50.6497 8.13662 50.543 8.1575C50.4362 8.17838 50.3414 8.20224 50.2346 8.22312C50.1279 8.244 50.033 8.26786 49.9263 8.30067C49.8195 8.32155 49.7247 8.35436 49.6179 8.37822C49.5112 8.41103 49.4163 8.4319 49.3096 8.46471C49.2028 8.49752 49.108 8.53033 49.0012 8.56314C48.8945 8.59595 48.7996 8.62876 48.6929 8.6735C48.5861 8.70631 48.4913 8.75105 48.3845 8.78385C48.2778 8.82859 48.1829 8.8614 48.0762 8.90316C47.9694 8.9479 47.8746 8.98966 47.7678 9.0344C47.6611 9.07913 47.5662 9.12089 47.4595 9.16563C47.3527 9.21037 47.2579 9.26406 47.1511 9.3088C47.0444 9.36249 46.9495 9.40722 46.8428 9.46389C46.736 9.51758 46.6412 9.57425 46.5344 9.62794C46.4277 9.68163 46.3239 9.74724 46.2261 9.80392C46.1193 9.86953 46.0126 9.92322 45.9177 9.97989C45.8021 10.0455 45.7042 10.1111 45.6094 10.1767C45.47 10.2632 45.3751 10.3289 45.301 10.3855C45.2387 10.4303 45.2061 10.4511 45.2061 10.4511C45.1409 10.3646 45.0668 10.2752 44.9927 10.1767C44.8978 10.0574 44.8029 9.93515 44.6843 9.80392C44.5894 9.69356 44.4945 9.57425 44.376 9.45196C44.2811 9.34161 44.1743 9.23125 44.0676 9.11194C43.9727 9.00159 43.866 8.90316 43.7593 8.7928C43.6644 8.69438 43.5576 8.59595 43.4509 8.48559C43.356 8.38716 43.2493 8.28874 43.1425 8.19031C43.0477 8.10381 42.9409 8.00241 42.8342 7.90398C42.7393 7.81748 42.6326 7.728 42.5258 7.62958C42.431 7.54308 42.3242 7.4536 42.2175 7.3671C42.1226 7.28061 42.0159 7.20306 41.9091 7.11358C41.8143 7.03603 41.7075 6.94954 41.6008 6.87199C41.5059 6.79444 41.3992 6.71987 41.2924 6.64232C41.1976 6.56478 41.0908 6.48723 40.9841 6.42161C40.8892 6.34406 40.7825 6.27844 40.6757 6.20089C40.5809 6.13528 40.4741 6.05773 40.3674 5.99211C40.2725 5.92649 40.1658 5.86087 40.059 5.79526C39.9642 5.72964 39.8574 5.66402 39.7507 5.60735C39.6558 5.54173 39.5491 5.48804 39.4423 5.41944C39.3475 5.36576 39.2407 5.30014 39.134 5.24347C39.0391 5.18978 38.9324 5.13311 38.8256 5.07942C38.7307 5.02574 38.624 4.96907 38.5173 4.91538C38.4224 4.86169 38.3157 4.81695 38.2089 4.76028C38.114 4.70659 38.0073 4.66186 37.9006 4.61712C37.8057 4.57238 37.699 4.51869 37.5922 4.47395C37.4973 4.42921 37.3906 4.38745 37.2839 4.34271C37.189 4.29797 37.0823 4.25622 36.9755 4.21148C36.8806 4.16674 36.7739 4.13393 36.6672 4.09217C36.5723 4.05936 36.4655 4.01462 36.3588 3.98182C36.2639 3.94901 36.1572 3.9162 36.0505 3.87146C35.9556 3.83865 35.8488 3.80584 35.7421 3.77303C35.6472 3.74022 35.5405 3.70741 35.4338 3.6746C35.3389 3.6418 35.2321 3.62092 35.1254 3.58811C35.0305 3.5553 34.9238 3.53442 34.8171 3.51056C34.7222 3.48968 34.6154 3.45687 34.5087 3.43301C34.4138 3.41213 34.3071 3.38827 34.2004 3.36739C34.1055 3.34651 33.9987 3.32265 33.892 3.30177C33.7971 3.2809 33.6904 3.26897 33.5836 3.24809C33.4888 3.22721 33.382 3.21528 33.2753 3.1944C33.1804 3.18247 33.0737 3.16159 32.9669 3.14966C32.8721 3.13773 32.7653 3.12878 32.6586 3.10492C32.5637 3.09299 32.457 3.08404 32.3502 3.07211C32.2554 3.06018 32.1486 3.05123 32.0419 3.05123C31.947 3.0393 31.8403 3.0393 31.7335 3.03036C31.6387 3.01842 31.5319 3.01842 31.4252 3.01842C31.3303 3.01842 31.2236 3.00649 31.1168 3.00649C31.022 3.00649 30.9152 3.00649 30.8085 3.00649C30.7136 3.00649 30.6069 3.00649 30.5001 3.00649C30.4053 3.00649 30.2985 3.01842 30.1918 3.01842C30.0969 3.01842 29.9902 3.03036 29.8834 3.03036C29.7885 3.04229 29.6818 3.04229 29.5751 3.05123C29.4802 3.06316 29.3735 3.07211 29.2667 3.07211C29.16 3.08404 29.0651 3.09299 28.9584 3.10492C28.8635 3.11685 28.7568 3.1258 28.65 3.14966C28.5551 3.16159 28.4484 3.18247 28.3417 3.1944C28.2349 3.20633 28.1401 3.22721 28.0333 3.23914C27.9384 3.26002 27.8317 3.27195 27.725 3.29283C27.6301 3.31371 27.5234 3.33757 27.4166 3.34651C27.3217 3.36739 27.215 3.39125 27.1083 3.41213C27.0134 3.43301 26.9066 3.45687 26.7999 3.48968C26.6932 3.51056 26.5983 3.54337 26.4916 3.56723C26.3967 3.58811 26.2899 3.62092 26.1832 3.65373C26.0883 3.68653 25.9816 3.70741 25.8749 3.74022C25.7681 3.77303 25.6732 3.80584 25.5665 3.83865C25.4716 3.87146 25.3649 3.90427 25.2582 3.93708C25.1514 3.96988 25.0565 4.00269 24.9498 4.04743C24.8549 4.08024 24.7482 4.12498 24.6414 4.15779C24.5466 4.1906 24.4398 4.23534 24.3331 4.2771C24.2264 4.32184 24.1315 4.35464 24.0247 4.3964C23.9299 4.44114 23.8231 4.4829 23.7164 4.52764C23.6215 4.57238 23.5355 4.60519 23.4407 4.64694C23.4288 4.64694 23.4199 4.65887 23.408 4.65887C23.3013 4.70361 23.2064 4.7573 23.0997 4.80204C22.993 4.84678 22.8981 4.90047 22.7913 4.94521C22.6846 4.99889 22.5897 5.04363 22.483 5.1003C22.3762 5.15399 22.2814 5.21066 22.1746 5.26435C22.0679 5.31804 21.973 5.3747 21.8663 5.42839C21.7595 5.48208 21.6647 5.53875 21.5579 5.60437C21.4512 5.65805 21.3563 5.72367 21.2496 5.78034C21.1428 5.84596 21.048 5.89965 20.9412 5.96825C20.8345 6.03387 20.7396 6.09948 20.6329 6.1651C20.5261 6.23072 20.4313 6.29634 20.3245 6.37389C20.2178 6.43951 20.1229 6.51705 20.0162 6.58267C19.9094 6.66022 19.8146 6.72584 19.7078 6.80339C19.6011 6.88093 19.5062 6.95848 19.3995 7.03305C19.2927 7.1106 19.1979 7.18815 19.0911 7.27464C18.9844 7.36114 18.8895 7.43869 18.7828 7.52817C18.676 7.61466 18.5812 7.70414 18.4744 7.79064C18.3677 7.87713 18.2728 7.97854 18.1661 8.06504C18.0593 8.16347 17.9644 8.25295 17.8577 8.35137C17.751 8.4498 17.6561 8.54823 17.5494 8.64665C17.4426 8.74508 17.3477 8.85544 17.241 8.95386C17.1343 9.06422 17.0394 9.17458 16.9327 9.27301C16.8259 9.38336 16.731 9.50267 16.6243 9.61303C16.5176 9.73233 16.4227 9.85462 16.316 9.96498C16.2092 10.0843 16.1143 10.2185 16.0076 10.3378C15.9009 10.469 15.806 10.6003 15.6993 10.7315C15.5925 10.8628 15.4976 11.0059 15.3909 11.1372C15.2842 11.2803 15.1893 11.4235 15.0825 11.5637C14.9758 11.7188 14.8809 11.8709 14.7742 12.026C14.6675 12.19 14.5726 12.3541 14.4658 12.5092C14.3591 12.6851 14.2642 12.8492 14.1575 13.0252C14.0508 13.2131 13.9559 13.398 13.8491 13.574C13.7424 13.7708 13.6475 13.9677 13.5408 14.1675C13.4341 14.3763 13.3392 14.594 13.2324 14.8028C13.1257 15.0325 13.0219 15.2651 12.9241 15.4948C12.8173 15.7483 12.7136 15.9988 12.6157 16.2524C12.509 16.5387 12.4052 16.8221 12.3074 17.0875C12.1918 17.4156 12.0969 17.7347 11.999 18.0419C11.8834 18.4357 11.7885 18.8115 11.6907 19.1604C11.5632 19.6973 11.4564 20.1686 11.3823 20.5772C11.2222 21.4451 11.1926 21.9611 11.1926 21.9611C11.16 21.9731 11.1184 21.982 11.0858 21.982C10.9791 22.0029 10.8842 22.0267 10.7775 22.0476C10.6707 22.0685 10.5759 22.0924 10.4691 22.1252C10.3624 22.1461 10.2675 22.1789 10.1608 22.2027C10.054 22.2355 9.95917 22.2564 9.85243 22.2892C9.74569 22.322 9.65081 22.3429 9.54408 22.3757C9.43734 22.4085 9.34246 22.4413 9.23573 22.4741C9.12899 22.507 9.03411 22.5398 8.92737 22.5726C8.82064 22.6054 8.72576 22.6501 8.61902 22.6829C8.51229 22.7277 8.41741 22.7605 8.31067 22.8022C8.20393 22.847 8.10906 22.8798 8.00232 22.9215C7.89558 22.9663 7.8007 23.008 7.69397 23.0528C7.58723 23.0975 7.49235 23.1512 7.38562 23.1959C7.27888 23.2496 7.184 23.2944 7.07726 23.351C6.97053 23.4047 6.87565 23.4614 6.76891 23.5151C6.66217 23.5688 6.5673 23.6344 6.46056 23.6911C6.35382 23.7567 6.25895 23.8104 6.15221 23.879C6.04547 23.9446 5.95059 24.0102 5.84386 24.0758C5.73712 24.1414 5.64224 24.219 5.53551 24.2965C5.42877 24.3741 5.33389 24.4516 5.22715 24.5262C5.12042 24.6037 5.02554 24.6902 4.9188 24.7797C4.81206 24.8662 4.71719 24.9557 4.61045 25.0541C4.50371 25.1525 4.40884 25.251 4.3021 25.3494C4.19536 25.4598 4.10048 25.5582 3.99375 25.6685C3.88701 25.7789 3.79213 25.8982 3.6854 26.0205C3.57866 26.1398 3.48378 26.274 3.37704 26.4053C3.27031 26.5484 3.17543 26.6797 3.06869 26.8228C2.96195 26.9779 2.85818 27.142 2.76034 27.2941C2.6536 27.4701 2.54983 27.655 2.45199 27.831C2.34525 28.0397 2.24148 28.2485 2.14364 28.4573C2.0369 28.7108 1.93313 28.9614 1.83529 29.2149C1.71965 29.543 1.61292 29.8621 1.52693 30.1902C1.39055 30.6943 1.2927 31.1983 1.21858 31.6815C0.954704 33.5039 1.10295 35.0728 1.21858 35.8841C1.27195 36.2569 1.31346 36.4657 1.31346 36.4657C1.28085 36.412 1.2512 36.3553 1.21858 36.3016C1.11184 36.1167 1.00807 35.9169 0.91023 35.7319C0.794599 35.4904 0.699721 35.2488 0.601879 35.0072C0.486247 34.6493 0.382475 34.3212 0.308352 33.9782Z" fill="url(#paint0_linear)"/>
<defs>
<linearGradient id="paint0_linear" x1="0" y1="18.9414" x2="78.6296" y2="18.9414" gradientUnits="userSpaceOnUse">
<stop stop-color="#4DB849"/>
<stop offset="0.5312" stop-color="#FFE500"/>
<stop offset="1" stop-color="#F6841F"/>
</linearGradient>
</defs>
</svg>
