<svg width="75" height="48" viewBox="0 0 75 48" fill="none" xmlns="http://www.w3.org/2000/svg">
<path fill-rule="evenodd" clip-rule="evenodd" d="M1.8716 45.8497C2.43807 46.1922 3.39801 46.5768 4.3105 46.5768C5.62483 46.5768 6.25269 45.9115 6.25269 45.03C6.25269 44.1261 5.72529 43.6601 4.39143 43.1408C2.56085 42.4671 1.70975 41.4593 1.70975 40.2241C1.70975 38.5539 3.0464 37.1812 5.20067 37.1812C6.222 37.1812 7.12333 37.4619 7.65911 37.824L7.22379 39.1939C6.83033 38.9356 6.10201 38.5707 5.15882 38.5707C4.06494 38.5707 3.47893 39.2136 3.47893 39.9827C3.47893 40.8445 4.06494 41.2291 5.38206 41.7569C7.11217 42.4222 8.03304 43.3261 8.03304 44.8616C8.03304 46.7003 6.63778 47.986 4.27981 47.986C3.17756 47.986 2.15623 47.6856 1.43628 47.2589L1.8716 45.8497Z" fill="#2B2A29"/>
<path fill-rule="evenodd" clip-rule="evenodd" d="M16.5495 47.3993C16.0751 47.6379 15.0008 48 13.6474 48C10.603 48 8.6189 45.8834 8.6189 42.7057C8.6189 39.5167 10.7425 37.1812 14.052 37.1812C15.1347 37.1812 16.0947 37.4619 16.6026 37.7426L16.1868 39.1742C15.7514 38.9356 15.065 38.6858 14.0632 38.6858C11.7471 38.6858 10.4913 40.4599 10.4913 42.6102C10.4913 45.0076 11.9982 46.4841 14.0018 46.4841C15.0427 46.4841 15.7319 46.2259 16.2565 45.9957L16.5495 47.3993Z" fill="#2B2A29"/>
<path fill-rule="evenodd" clip-rule="evenodd" d="M17.6519 32.5493H19.4936V47.7614H17.6519V32.5493Z" fill="#2B2A29"/>
<path fill-rule="evenodd" clip-rule="evenodd" d="M22.6915 42.6018C22.6915 44.8756 23.9472 46.588 25.7359 46.588C27.4855 46.588 28.7999 44.8953 28.7999 42.5597C28.7999 40.8052 27.9404 38.5932 25.775 38.5932C23.6207 38.5932 22.6915 40.648 22.6915 42.6018ZM30.6807 42.4867C30.6807 46.3185 28.0716 47.9888 25.6522 47.9888C22.9398 47.9888 20.8079 45.9339 20.8079 42.6523C20.8079 39.2051 23.0431 37.1699 25.814 37.1699C28.7189 37.1812 30.6807 39.3399 30.6807 42.4867Z" fill="#2B2A29"/>
<path fill-rule="evenodd" clip-rule="evenodd" d="M40.4031 44.9175C40.4031 46.0067 40.4226 46.9527 40.484 47.7612H38.8571L38.7566 46.0685H38.7176C38.2627 46.8994 37.1688 47.9998 35.3801 47.9998C33.7923 47.9998 31.8892 47.0762 31.8892 43.4634V37.3999H33.7309V43.1209C33.7309 45.0944 34.3392 46.4446 35.9857 46.4446C37.2191 46.4446 38.0702 45.5632 38.4022 44.7098C38.5027 44.4515 38.5641 44.1091 38.5641 43.7441V37.3887H40.4058V44.9175H40.4031Z" fill="#2B2A29"/>
<path fill-rule="evenodd" clip-rule="evenodd" d="M49.2961 41.6136C49.2961 41.375 49.2766 41.0521 49.2152 40.8248C48.9417 39.6401 47.9399 38.666 46.5642 38.666C44.6639 38.666 43.5393 40.3784 43.5393 42.6522C43.5393 44.7492 44.5606 46.484 46.5223 46.484C47.7557 46.484 48.8803 45.6222 49.2124 44.2299C49.2738 43.9716 49.2933 43.7105 49.2933 43.4214V41.6136H49.2961ZM51.1155 32.5492V45.0804C51.1155 46.004 51.1574 47.0539 51.1964 47.7585H49.5668L49.4859 45.9619H49.4245C48.8775 47.1156 47.6748 47.9971 46.0256 47.9971C43.5867 47.9971 41.6864 45.8805 41.6864 42.7224C41.6669 39.2752 43.7709 37.1782 46.2182 37.1782C47.7864 37.1782 48.8078 37.9249 49.2626 38.7446H49.3017V32.5464H51.1155V32.5492Z" fill="#2B2A29"/>
<path fill-rule="evenodd" clip-rule="evenodd" d="M52.4915 46.6496C52.4915 45.8804 53.0161 45.2993 53.7444 45.2993C54.4728 45.2993 54.9779 45.8608 54.9779 46.6496C54.9779 47.4187 54.4728 47.9998 53.7026 47.9998C52.9993 47.9998 52.4915 47.4187 52.4915 46.6496Z" fill="#2B2A29"/>
<path fill-rule="evenodd" clip-rule="evenodd" d="M56.2057 40.6284C56.2057 39.4044 56.1861 38.3546 56.1248 37.3889H57.7321L57.813 39.4437H57.8744C58.3293 38.0514 59.4622 37.1699 60.6956 37.1699C60.8881 37.1699 61.0305 37.1896 61.2007 37.212V38.9862C61.0081 38.9441 60.8268 38.9441 60.5728 38.9441C59.278 38.9441 58.3572 39.9294 58.106 41.3414C58.0642 41.5997 58.0446 41.9225 58.0446 42.2228V47.7474H56.2029V40.6284H56.2057Z" fill="#808285"/>
<path fill-rule="evenodd" clip-rule="evenodd" d="M70.4483 44.9175C70.4483 46.0067 70.4678 46.9527 70.5292 47.7612H68.8995L68.7991 46.0685H68.76C68.3052 46.8994 67.2113 47.9998 65.4226 47.9998C63.8348 47.9998 61.9316 47.0762 61.9316 43.4634V37.3999H63.7734V43.1209C63.7734 45.0944 64.3817 46.4446 66.0281 46.4446C67.2615 46.4446 68.1126 45.5632 68.4447 44.7098C68.5451 44.4515 68.6177 44.1091 68.6177 43.7441V37.3887H70.4594V44.9175H70.4483Z" fill="#808285"/>
<path fill-rule="evenodd" clip-rule="evenodd" d="M0.610281 31.9794C0.400993 31.0923 0.320068 30.2249 0.320068 29.4501C0.320068 27.9005 0.610281 26.7749 0.610281 26.7749C0.680044 26.2892 0.780502 25.8457 0.900494 25.4106C0.98979 25.1018 1.07909 24.8014 1.19071 24.5123C1.28 24.2737 1.3693 24.0463 1.48092 23.8217C1.57022 23.6252 1.67067 23.4287 1.77113 23.2547C1.86043 23.089 1.96089 22.9234 2.06134 22.769C2.15064 22.6231 2.2511 22.4799 2.35156 22.3451C2.44085 22.2104 2.54131 22.0869 2.64177 21.9634C2.73107 21.8511 2.83152 21.736 2.93198 21.6237C3.02128 21.5198 3.12174 21.416 3.2222 21.3149C3.31149 21.2223 3.41195 21.1296 3.51241 21.037C3.6017 20.9444 3.70216 20.8601 3.80262 20.7787C3.89192 20.6973 3.99238 20.6243 4.09283 20.5401C4.18213 20.4671 4.28259 20.3942 4.38305 20.324C4.4835 20.251 4.5728 20.1892 4.67326 20.1275C4.77372 20.0657 4.86301 20.004 4.96347 19.9422C5.06393 19.8804 5.15323 19.8299 5.25368 19.7766C5.35414 19.726 5.44344 19.6727 5.5439 19.6222C5.64436 19.5716 5.73365 19.5295 5.83411 19.4762C5.93457 19.4341 6.02386 19.3836 6.12432 19.3415C6.22478 19.2994 6.31408 19.2601 6.41454 19.2179C6.51499 19.1758 6.60429 19.145 6.70475 19.1057C6.80521 19.0748 6.8945 19.0327 6.99496 19.0018C7.09542 18.9709 7.18472 18.94 7.28517 18.9092C7.38563 18.8783 7.47493 18.8586 7.57539 18.8277C7.67584 18.7969 7.77351 18.7772 7.8656 18.7548C7.96606 18.7351 8.06372 18.7127 8.15581 18.693C8.26464 18.6734 8.35394 18.6509 8.44602 18.6425C8.56602 18.6228 8.65531 18.6116 8.73624 18.6004C8.8367 18.5891 8.88692 18.5807 8.88692 18.5807C8.88692 18.5807 8.90646 18.1568 9.01529 17.4438C9.07389 17.062 9.16598 16.5876 9.3055 16.0486C9.38643 15.7286 9.47572 15.3777 9.59571 15.0044C9.67664 14.7265 9.77431 14.4373 9.88593 14.137C9.97522 13.8899 10.0645 13.6317 10.1761 13.3734C10.2654 13.146 10.3547 12.9186 10.4664 12.6913C10.5556 12.4835 10.6449 12.2786 10.7566 12.0709C10.8459 11.8856 10.9463 11.6891 11.0468 11.5038C11.1361 11.327 11.2365 11.1529 11.337 10.9676C11.4263 10.802 11.5267 10.6364 11.6272 10.4708C11.7165 10.3164 11.817 10.162 11.9174 10.0048C12.0067 9.85881 12.1072 9.70442 12.2076 9.56125C12.2969 9.41528 12.3974 9.28334 12.4978 9.13737C12.5871 9.00262 12.6876 8.86788 12.7881 8.73594C12.8773 8.61242 12.9778 8.47768 13.0783 8.35416C13.1676 8.23065 13.268 8.11555 13.3685 7.99204C13.4578 7.87975 13.5582 7.76466 13.6587 7.64114C13.748 7.52885 13.8484 7.41376 13.9489 7.30989C14.0382 7.20603 14.1387 7.09374 14.2391 6.98987C14.3284 6.88601 14.4289 6.78214 14.5293 6.68109C14.6186 6.57722 14.7191 6.48458 14.8195 6.38072C14.9088 6.28808 15.0093 6.19544 15.1098 6.09158C15.1991 5.99894 15.2995 5.9063 15.4 5.81367C15.4893 5.72103 15.5897 5.63681 15.6902 5.54418C15.7795 5.46277 15.8799 5.37855 15.9804 5.28592C16.0697 5.20451 16.1701 5.12029 16.2706 5.03889C16.3599 4.95748 16.4604 4.88449 16.5608 4.80028C16.6501 4.72729 16.7506 4.64588 16.851 4.57289C16.9403 4.49991 17.0408 4.42973 17.1412 4.34551C17.2305 4.27253 17.331 4.19954 17.4315 4.12936C17.5208 4.05637 17.6212 3.98619 17.7217 3.92163C17.811 3.84864 17.9114 3.78688 18.0119 3.7139C18.1012 3.65214 18.2016 3.57915 18.3021 3.51739C18.3914 3.45564 18.4918 3.39388 18.5923 3.33212C18.6816 3.27036 18.7821 3.20861 18.8825 3.14685C18.9718 3.08509 19.0723 3.02333 19.1727 2.96157C19.262 2.89982 19.3625 2.84929 19.4629 2.78472C19.5522 2.72296 19.6527 2.67243 19.7532 2.6191C19.8425 2.56857 19.9429 2.50681 20.0434 2.45347C20.1327 2.40294 20.2331 2.34961 20.3336 2.29908C20.4229 2.24855 20.5233 2.19521 20.6238 2.14468C20.7131 2.09416 20.8136 2.04082 20.914 1.99871C21.0033 1.94818 21.1038 1.90607 21.2042 1.85274C21.2349 1.84151 21.2628 1.82186 21.2935 1.81063C21.3633 1.77975 21.4219 1.74887 21.4916 1.71799C21.5921 1.67589 21.6814 1.62536 21.7819 1.58325C21.8823 1.54114 21.9716 1.50184 22.0721 1.45973C22.1725 1.41763 22.2618 1.37832 22.3623 1.33622C22.4627 1.29411 22.552 1.25481 22.6525 1.22393C22.753 1.18182 22.8423 1.14252 22.9427 1.11164C23.0432 1.06954 23.1325 1.03866 23.2329 1.00778C23.3334 0.976898 23.4227 0.93479 23.5231 0.903912C23.6236 0.873033 23.7129 0.842154 23.8133 0.811275C23.9138 0.780396 24.0031 0.749517 24.1036 0.718638C24.204 0.687759 24.2933 0.668108 24.3938 0.63723C24.4942 0.606351 24.5835 0.5867 24.684 0.555821C24.7844 0.536171 24.8737 0.505292 24.9742 0.482835C25.0747 0.463184 25.164 0.432305 25.2644 0.409848C25.3649 0.390198 25.4542 0.36774 25.5546 0.34809C25.6551 0.32844 25.7444 0.305982 25.8448 0.286332C25.9453 0.266682 26.0346 0.244225 26.135 0.235803C26.2355 0.216153 26.3248 0.204924 26.4253 0.185274C26.5257 0.174045 26.615 0.154395 26.7155 0.143166C26.8159 0.131937 26.9052 0.123516 27.0057 0.112287C27.1061 0.101058 27.1954 0.0926369 27.2959 0.0814082C27.3964 0.0701795 27.4857 0.0617579 27.5861 0.0617579C27.6866 0.0505292 27.7759 0.0421077 27.8763 0.0421077C27.9768 0.030879 28.0661 0.030879 28.1665 0.0224574C28.267 0.0224574 28.3563 0.0112287 28.4567 0.0112287C28.5572 0.0112287 28.6465 0 28.747 0C28.8474 0 28.9367 0 29.0372 0C29.1376 0 29.2269 0 29.3274 0C29.4278 0 29.5171 0.0112287 29.6176 0.0112287C29.7181 0.0112287 29.8074 0.0224574 29.9078 0.0224574C30.0083 0.0224574 30.0976 0.0336861 30.198 0.0421077C30.2985 0.0533364 30.3878 0.0533364 30.4882 0.0617579C30.5887 0.0729866 30.678 0.0814082 30.7785 0.0814082C30.8789 0.0926369 30.9682 0.101058 31.0687 0.112287C31.1691 0.123516 31.2584 0.131937 31.3589 0.143166C31.4593 0.154395 31.5486 0.174045 31.6491 0.185274C31.7495 0.196502 31.8388 0.216153 31.9393 0.227381C32.0398 0.247032 32.1291 0.25826 32.2295 0.277911C32.33 0.297561 32.4193 0.320018 32.5197 0.32844C32.6202 0.34809 32.7095 0.370548 32.8099 0.390198C32.9104 0.409848 32.9997 0.432306 33.1002 0.451956C33.2006 0.471606 33.2899 0.494063 33.3904 0.524942C33.4908 0.544593 33.5801 0.575472 33.6806 0.597929C33.781 0.617579 33.8703 0.648458 33.9708 0.670916C34.0713 0.701795 34.1605 0.721445 34.261 0.752324C34.3615 0.783203 34.4508 0.802853 34.5512 0.833732C34.6517 0.864611 34.741 0.89549 34.8414 0.926369C34.9419 0.957248 35.0312 0.988127 35.1316 1.01901C35.2321 1.04988 35.3214 1.08076 35.4219 1.12287C35.5223 1.15375 35.6116 1.19586 35.7121 1.22674C35.8125 1.25762 35.9018 1.29972 36.0023 1.33902C36.1027 1.38113 36.192 1.41201 36.2925 1.45131C36.393 1.49342 36.4822 1.5243 36.5827 1.5636C36.6832 1.60571 36.7725 1.64501 36.8729 1.68711C36.9734 1.72922 37.0627 1.76852 37.1631 1.81063C37.2636 1.85274 37.3529 1.89204 37.4533 1.94537C37.5538 1.98748 37.6431 2.03801 37.7436 2.08012C37.844 2.13065 37.9333 2.17276 38.0338 2.22609C38.1342 2.27662 38.2235 2.31873 38.324 2.37207C38.4244 2.4226 38.5137 2.47593 38.6142 2.52646C38.7147 2.57699 38.8039 2.63033 38.9044 2.68086C39.0049 2.73138 39.0942 2.78472 39.1946 2.84648C39.2951 2.89701 39.3844 2.95877 39.4848 3.0121C39.5853 3.06263 39.6746 3.12439 39.775 3.17773C39.8755 3.23948 39.9648 3.29001 40.0653 3.35458C40.1657 3.41634 40.255 3.47809 40.3555 3.53143C40.4559 3.59319 40.5452 3.65495 40.6457 3.7167C40.7461 3.77846 40.8354 3.84022 40.9359 3.91321C41.0364 3.97496 41.1257 4.04795 41.2261 4.10971C41.3266 4.1827 41.4159 4.24445 41.5163 4.31744C41.6168 4.39043 41.7061 4.46341 41.8065 4.52517C41.907 4.59816 41.9963 4.67114 42.0967 4.74132C42.1972 4.81431 42.2865 4.89572 42.387 4.95748C42.4874 5.03889 42.5879 5.11187 42.6772 5.18486C42.7776 5.26627 42.8781 5.35048 42.9674 5.42347C43.0762 5.51611 43.1683 5.60032 43.2576 5.6705C43.3776 5.77437 43.478 5.867 43.5478 5.92876C43.6287 6.00175 43.6566 6.04105 43.6566 6.04105C43.718 6.0214 43.7655 5.99894 43.8269 5.97929C43.9273 5.94841 44.0166 5.9063 44.1171 5.87542C44.2175 5.84455 44.3068 5.80244 44.4073 5.77156C44.5077 5.74068 44.597 5.7098 44.6975 5.67892C44.798 5.64804 44.8873 5.61716 44.9877 5.58629C45.0882 5.55541 45.1775 5.52453 45.2779 5.49365C45.3784 5.46277 45.4677 5.43189 45.5681 5.41224C45.6686 5.38136 45.7579 5.36171 45.8584 5.33083C45.9588 5.29995 46.0481 5.2803 46.1486 5.24942C46.249 5.22977 46.3383 5.19889 46.4388 5.17644C46.5392 5.15679 46.6285 5.12591 46.729 5.10345C46.8294 5.0838 46.9187 5.06134 47.0192 5.04169C47.1197 5.02204 47.209 4.99958 47.3094 4.97993C47.4099 4.96028 47.4992 4.94906 47.5996 4.92941C47.7001 4.90976 47.7894 4.89853 47.8898 4.87888C47.9903 4.85923 48.0796 4.848 48.1801 4.83677C48.2805 4.82554 48.3698 4.80589 48.4703 4.79466C48.5707 4.78343 48.66 4.77501 48.7605 4.76378C48.8609 4.75255 48.9502 4.74413 49.0507 4.7329C49.1511 4.72167 49.2404 4.72167 49.3409 4.71325C49.4414 4.70202 49.5307 4.70202 49.6311 4.6936C49.7316 4.6936 49.8209 4.68237 49.9213 4.68237C50.0218 4.68237 50.1111 4.68237 50.2115 4.67114C50.312 4.67114 50.4013 4.67114 50.5018 4.67114C50.6022 4.67114 50.6915 4.67114 50.792 4.68237C50.8924 4.68237 50.9817 4.6936 51.0822 4.6936C51.1826 4.70483 51.2719 4.70483 51.3724 4.71325C51.4729 4.72448 51.5621 4.7329 51.6626 4.7329C51.7631 4.74413 51.8524 4.75255 51.9528 4.76378C52.0533 4.77501 52.1426 4.79466 52.243 4.80589C52.3435 4.81712 52.4328 4.83677 52.5332 4.848C52.6337 4.86765 52.723 4.87888 52.8235 4.89853C52.9239 4.91818 53.0132 4.94063 53.1137 4.96028C53.2141 4.97993 53.3034 5.00239 53.4039 5.03327C53.5043 5.05292 53.5936 5.0838 53.6941 5.10626C53.7946 5.13714 53.8838 5.15679 53.9843 5.18767C54.0848 5.21854 54.1741 5.24942 54.2745 5.2803C54.375 5.31118 54.4643 5.34206 54.5647 5.38417C54.6652 5.41505 54.7545 5.45715 54.8549 5.49646C54.9554 5.53856 55.0447 5.57786 55.1452 5.61997C55.2456 5.66208 55.3349 5.70138 55.4354 5.75472C55.5358 5.79682 55.6251 5.84735 55.7256 5.88946C55.826 5.93999 55.9153 5.9821 56.0158 6.03263C56.1163 6.08316 56.2056 6.13649 56.306 6.18702C56.4065 6.23755 56.4958 6.29931 56.5962 6.36387C56.6967 6.42563 56.786 6.48739 56.8864 6.54915C56.9869 6.61091 57.0762 6.68389 57.1766 6.74565C57.2771 6.81864 57.3664 6.88039 57.4669 6.95338C57.5673 7.02637 57.6566 7.09935 57.7571 7.16953C57.8575 7.25094 57.9468 7.32393 58.0473 7.40814C58.1477 7.48955 58.237 7.57377 58.3375 7.65518C58.438 7.74781 58.5273 7.83203 58.6277 7.92466C58.7282 8.0173 58.8175 8.10994 58.9179 8.2138C59.0184 8.31767 59.1077 8.42154 59.2081 8.51417C59.3086 8.61804 59.3979 8.73032 59.4983 8.83419C59.5988 8.94648 59.6881 9.06157 59.7886 9.17386C59.889 9.29737 59.9783 9.42089 60.0788 9.54441C60.1792 9.67915 60.2769 9.8139 60.369 9.93741C60.4694 10.0834 60.5699 10.2266 60.6592 10.3613C60.7597 10.5157 60.8573 10.6701 60.9494 10.8273C61.0499 11.0041 61.1503 11.1782 61.2396 11.3326C61.3485 11.5403 61.4378 11.7256 61.5298 11.8996C61.661 12.1775 61.7587 12.4049 61.82 12.5509C61.8703 12.6744 61.8898 12.7474 61.8898 12.7474C61.8898 12.7474 61.9596 12.767 62.0991 12.8204C62.18 12.8513 62.2693 12.8821 62.3893 12.9242C62.4786 12.9551 62.5679 12.9972 62.6795 13.0281C62.7688 13.059 62.8581 13.1011 62.9697 13.1404C63.059 13.1825 63.1595 13.2134 63.26 13.2527C63.3492 13.2948 63.4497 13.3341 63.5502 13.3762C63.6395 13.4183 63.7399 13.4576 63.8404 13.511C63.9297 13.5531 64.0301 13.5924 64.1306 13.6457C64.2199 13.6878 64.3204 13.7383 64.4208 13.7917C64.5101 13.8422 64.6106 13.8843 64.711 13.9348C64.8003 13.9854 64.9008 14.0387 65.0012 14.0892C65.0905 14.1398 65.191 14.1931 65.2914 14.2436C65.3807 14.2942 65.4812 14.3475 65.5816 14.4092C65.671 14.4598 65.7714 14.5215 65.8719 14.5749C65.9612 14.6254 66.0616 14.6872 66.1621 14.7517C66.2514 14.8135 66.3518 14.864 66.4523 14.9286C66.5416 14.9903 66.6421 15.0521 66.7425 15.1138C66.8318 15.1756 66.9323 15.2374 67.0327 15.3104C67.122 15.3721 67.2225 15.4451 67.3229 15.5069C67.4234 15.5798 67.5127 15.6416 67.6131 15.7146C67.7136 15.7876 67.8029 15.8578 67.9034 15.9307C68.0038 16.0037 68.0931 16.0767 68.1936 16.1581C68.294 16.2311 68.3833 16.3125 68.4838 16.3855C68.5842 16.4669 68.6735 16.5399 68.774 16.6241C68.8745 16.7055 68.9637 16.7897 69.0642 16.8711C69.1647 16.9526 69.254 17.048 69.3544 17.1294C69.4549 17.222 69.5442 17.3147 69.6446 17.4073C69.7451 17.5 69.8344 17.5926 69.9348 17.6965C70.0353 17.8003 70.1246 17.893 70.2251 17.9968C70.3255 18.1007 70.4148 18.2046 70.5153 18.3168C70.6157 18.4291 70.705 18.533 70.8055 18.6481C70.9059 18.7604 70.9952 18.8867 71.0957 18.999C71.1962 19.1225 71.2854 19.246 71.3859 19.3695C71.4864 19.5043 71.5757 19.639 71.6761 19.771C71.7766 19.9169 71.8659 20.0601 71.9663 20.2061C72.0668 20.3605 72.1561 20.5149 72.2565 20.6721C72.357 20.8377 72.4463 21.0117 72.5468 21.1886C72.6472 21.3739 72.7365 21.5591 72.837 21.7556C72.9374 21.9634 73.0267 22.1795 73.1272 22.3957C73.2276 22.6343 73.3253 22.8813 73.4174 23.1396C73.5067 23.3978 73.596 23.6561 73.6657 23.934C73.6769 23.9761 73.6853 24.007 73.6964 24.0463C73.8053 24.4168 73.8946 24.779 73.9867 25.1299C74.0955 25.6043 74.196 26.059 74.2769 26.4829C74.7066 28.8774 74.6062 30.7077 74.2769 32.0608C74.196 32.4005 74.0983 32.7205 73.9867 33.0012C73.8974 33.2398 73.7969 33.4644 73.6964 33.6721C73.6072 33.8574 73.5067 34.0342 73.4062 34.1886C73.3058 34.343 73.2165 34.489 73.116 34.6125C73.0156 34.7473 72.9263 34.8595 72.8258 34.9634C72.7253 35.0757 72.6277 35.1796 72.5356 35.2638C72.4268 35.3676 72.3263 35.4491 72.2454 35.5108C72.117 35.6147 72.0249 35.6652 72.0249 35.6652C72.0947 35.4575 72.1645 35.2217 72.2454 34.9325C72.3542 34.5311 72.4547 34.0455 72.5356 33.4756C72.6947 32.3387 72.756 30.9042 72.5356 29.2115C72.4658 28.6838 72.3765 28.1364 72.2454 27.5693C72.1645 27.1988 72.0668 26.8142 71.9552 26.424C71.8659 26.1152 71.7766 25.8036 71.665 25.4948C71.5757 25.2253 71.4864 24.9586 71.3747 24.6891C71.2855 24.4505 71.1962 24.2035 71.0845 23.9649C71.0036 23.7796 70.9255 23.5831 70.8446 23.3978C70.8334 23.367 70.8139 23.3361 70.8055 23.3052C70.7162 23.1087 70.6269 22.9122 70.5153 22.7269C70.426 22.5501 70.3255 22.3872 70.2251 22.2216C70.1358 22.0672 70.0353 21.9213 69.9348 21.7669C69.8456 21.6321 69.7451 21.4974 69.6446 21.3654C69.5553 21.2419 69.4549 21.1184 69.3544 20.9949C69.2651 20.8826 69.1647 20.7675 69.0642 20.6552C68.9749 20.5429 68.8745 20.4391 68.774 20.3352C68.6847 20.2313 68.5842 20.1275 68.4838 20.0348C68.3945 19.9422 68.294 19.8383 68.1936 19.7457C68.1043 19.6531 68.0038 19.5604 67.9034 19.4762C67.8141 19.3948 67.7136 19.2994 67.6131 19.2179C67.5238 19.1365 67.4234 19.0523 67.3229 18.9709C67.2336 18.8895 67.1332 18.8165 67.0327 18.7323C66.9434 18.6593 66.843 18.5779 66.7425 18.5049C66.6532 18.4319 66.5527 18.3618 66.4523 18.2888C66.363 18.2158 66.2625 18.1428 66.1621 18.081C66.0616 18.0081 65.9723 17.9463 65.8719 17.8845C65.7714 17.8228 65.6821 17.7498 65.5816 17.688C65.4812 17.6263 65.3919 17.5645 65.2914 17.5028C65.191 17.441 65.1017 17.3792 65.0012 17.3259C64.9008 17.2641 64.8115 17.2136 64.711 17.1491C64.6106 17.0873 64.5213 17.0368 64.4208 16.9834C64.3204 16.9329 64.231 16.8711 64.1306 16.8178C64.0301 16.7673 63.9408 16.7139 63.8404 16.6634C63.7399 16.6129 63.6506 16.5595 63.5502 16.509C63.4497 16.4585 63.3604 16.4052 63.26 16.3659C63.1595 16.3153 63.0702 16.2732 62.9697 16.2199C62.8693 16.1693 62.78 16.1272 62.6795 16.0851C62.5791 16.043 62.4898 15.9925 62.3893 15.9504C62.2889 15.9083 62.1996 15.869 62.0991 15.8269C61.9986 15.7848 61.9093 15.7455 61.8089 15.7034C61.7084 15.6613 61.6191 15.6219 61.5187 15.5798C61.4182 15.5377 61.3289 15.4984 61.2285 15.4676C61.128 15.4254 61.0387 15.3946 60.9383 15.3553C60.8378 15.3132 60.7485 15.2823 60.648 15.2514C60.5476 15.2093 60.4499 15.1784 60.3578 15.1475C60.2574 15.1054 60.1597 15.0745 60.0676 15.0437C59.9588 15.0016 59.8583 14.9707 59.7774 14.951C59.6267 14.9089 59.5569 14.878 59.5569 14.878C59.5374 14.8359 59.5179 14.7966 59.4983 14.7545C59.409 14.558 59.3086 14.3728 59.2081 14.1875C59.1188 14.0022 59.0184 13.8254 58.9179 13.6513C58.8286 13.4857 58.7282 13.3116 58.6277 13.1544C58.5384 13 58.438 12.8456 58.3375 12.6884C58.2482 12.5425 58.1477 12.3993 58.0473 12.2533C57.958 12.1186 57.8575 11.9838 57.7571 11.8519C57.6678 11.7172 57.5673 11.5936 57.4669 11.4701C57.3776 11.3466 57.2771 11.2315 57.1766 11.1192C57.0873 11.0069 56.9869 10.8919 56.8864 10.788C56.7971 10.6841 56.6967 10.5803 56.5962 10.4792C56.5069 10.3753 56.4065 10.2827 56.306 10.1901C56.2167 10.0974 56.1163 10.0048 56.0158 9.92057C55.9265 9.83916 55.826 9.74372 55.7256 9.66231C55.6363 9.5809 55.5358 9.50791 55.4354 9.4237C55.3349 9.35071 55.2456 9.28053 55.1452 9.20755C55.0447 9.13456 54.9554 9.0728 54.8549 8.99981C54.7545 8.93806 54.6652 8.8763 54.5647 8.81454C54.4643 8.75278 54.375 8.69102 54.2745 8.63769C54.1741 8.58716 54.0848 8.5254 53.9843 8.47206C53.8838 8.42154 53.7946 8.3682 53.6941 8.32609C53.5936 8.27556 53.5043 8.23345 53.4039 8.19135C53.3034 8.14924 53.2141 8.10994 53.1137 8.06783C53.0132 8.02572 52.9239 7.99484 52.8235 7.95554C52.723 7.92466 52.6337 7.88256 52.5332 7.86291C52.4328 7.83203 52.3435 7.80115 52.243 7.7815C52.1426 7.75062 52.0533 7.73097 51.9528 7.70851C51.8524 7.68886 51.7631 7.6664 51.6626 7.64675C51.5621 7.6271 51.4729 7.60465 51.3724 7.59623C51.2719 7.57657 51.1826 7.56535 51.0822 7.55412C50.9817 7.54289 50.8924 7.53447 50.792 7.52324C50.6915 7.51201 50.6022 7.50359 50.5018 7.50359C50.4013 7.49236 50.312 7.49236 50.2115 7.49236C50.1111 7.49236 50.0218 7.49236 49.9213 7.48113C49.8209 7.48113 49.7316 7.48113 49.6311 7.48113C49.5307 7.48113 49.4414 7.49236 49.3409 7.49236C49.2404 7.50359 49.1511 7.50359 49.0507 7.51201C48.9502 7.52324 48.8609 7.53166 48.7605 7.54289C48.66 7.55412 48.5707 7.56254 48.4703 7.585C48.3698 7.59622 48.2805 7.61587 48.1801 7.6271C48.0796 7.64675 47.9903 7.65798 47.8898 7.67763C47.7894 7.69728 47.7001 7.71974 47.5996 7.73939C47.4992 7.75904 47.4099 7.7815 47.3094 7.81238C47.209 7.83203 47.1197 7.86291 47.0192 7.88536C46.9187 7.91624 46.8294 7.93589 46.729 7.96677C46.6285 7.99765 46.5392 8.02853 46.4388 8.05941C46.3383 8.09029 46.249 8.12117 46.1486 8.16327C46.0481 8.19415 45.9588 8.23626 45.8584 8.26714C45.7579 8.30925 45.6686 8.34013 45.5681 8.37943C45.4677 8.42154 45.3784 8.46084 45.2779 8.50294C45.1775 8.54505 45.0882 8.58435 44.9877 8.62646C44.8873 8.66857 44.798 8.7191 44.6975 8.7612C44.597 8.81173 44.5077 8.85384 44.4073 8.90718C44.3068 8.95771 44.2175 9.01104 44.1171 9.06157C44.0166 9.1121 43.9189 9.17386 43.8269 9.2272C43.7264 9.28895 43.6259 9.33948 43.5366 9.39282C43.4278 9.45458 43.3357 9.51633 43.2464 9.57809C43.1153 9.6595 43.026 9.72126 42.9562 9.7746C42.8976 9.8167 42.8669 9.83635 42.8669 9.83635C42.8055 9.75494 42.7358 9.67073 42.666 9.57809C42.5767 9.46581 42.4874 9.35071 42.3758 9.2272C42.2865 9.12333 42.1972 9.01104 42.0856 8.89595C41.9963 8.79208 41.8958 8.68822 41.7954 8.57593C41.7061 8.47206 41.6056 8.37943 41.5052 8.27556C41.4159 8.18293 41.3154 8.09029 41.2149 7.98642C41.1257 7.89379 41.0252 7.80115 40.9247 7.70851C40.8354 7.6271 40.735 7.53166 40.6345 7.43902C40.5452 7.35761 40.4448 7.2734 40.3443 7.18076C40.255 7.09935 40.1546 7.01514 40.0541 6.93373C39.9648 6.85232 39.8643 6.77934 39.7639 6.69512C39.6746 6.62213 39.5741 6.54073 39.4737 6.46774C39.3844 6.39475 39.2839 6.32457 39.1835 6.25159C39.0942 6.1786 38.9937 6.10561 38.8932 6.04386C38.804 5.97087 38.7035 5.90911 38.603 5.83612C38.5137 5.77437 38.4133 5.70138 38.3128 5.63962C38.2235 5.57786 38.1231 5.51611 38.0226 5.45435C37.9333 5.39259 37.8329 5.33083 37.7324 5.2775C37.6431 5.21574 37.5426 5.16521 37.4422 5.10064C37.3529 5.05011 37.2524 4.98836 37.152 4.93502C37.0627 4.88449 36.9622 4.83115 36.8618 4.78062C36.7725 4.7301 36.672 4.67676 36.5715 4.62623C36.4822 4.5757 36.3818 4.53359 36.2813 4.48026C36.192 4.42973 36.0916 4.38762 35.9911 4.34551C35.9018 4.3034 35.8014 4.25288 35.7009 4.21077C35.6116 4.16866 35.5112 4.12936 35.4107 4.08725C35.3214 4.04514 35.2209 4.00584 35.1205 3.96374C35.0312 3.92163 34.9307 3.89075 34.8303 3.85145C34.741 3.82057 34.6405 3.77846 34.5401 3.74758C34.4508 3.7167 34.3503 3.68583 34.2498 3.64372C34.1605 3.61284 34.0601 3.58196 33.9596 3.55108C33.8703 3.5202 33.7699 3.48932 33.6694 3.45844C33.5801 3.42757 33.4797 3.40791 33.3792 3.37704C33.2899 3.34616 33.1894 3.32651 33.089 3.30405C32.9997 3.2844 32.8992 3.25352 32.7988 3.23106C32.7095 3.21141 32.609 3.18895 32.5086 3.1693C32.4193 3.14965 32.3188 3.1272 32.2184 3.10755C32.1291 3.0879 32.0286 3.07667 31.9281 3.05702C31.8388 3.03737 31.7384 3.02614 31.6379 3.00649C31.5486 2.99526 31.4482 2.97561 31.3477 2.96438C31.2584 2.95315 31.158 2.94473 31.0575 2.92227C30.9682 2.91104 30.8677 2.90262 30.7673 2.89139C30.678 2.88017 30.5775 2.87174 30.4771 2.87174C30.3878 2.86052 30.2873 2.86051 30.1869 2.85209C30.0976 2.84086 29.9971 2.84086 29.8967 2.84086C29.8074 2.84086 29.7069 2.82964 29.6064 2.82964C29.5171 2.82964 29.4167 2.82964 29.3162 2.82964C29.2269 2.82964 29.1265 2.82964 29.026 2.82964C28.9367 2.82964 28.8363 2.84086 28.7358 2.84086C28.6465 2.84086 28.546 2.85209 28.4456 2.85209C28.3563 2.86332 28.2558 2.86332 28.1554 2.87174C28.0661 2.88297 27.9656 2.89139 27.8652 2.89139C27.7647 2.90262 27.6754 2.91104 27.5749 2.92227C27.4857 2.9335 27.3852 2.94192 27.2847 2.96438C27.1954 2.97561 27.095 2.99526 26.9945 3.00649C26.8941 3.01772 26.8048 3.03737 26.7043 3.0486C26.615 3.06825 26.5146 3.07947 26.4141 3.09913C26.3248 3.11878 26.2243 3.14123 26.1239 3.14965C26.0346 3.1693 25.9341 3.19176 25.8337 3.21141C25.7444 3.23106 25.6439 3.25352 25.5435 3.2844C25.443 3.30405 25.3537 3.33493 25.2532 3.35739C25.164 3.37704 25.0635 3.40791 24.963 3.43879C24.8737 3.46967 24.7733 3.48932 24.6728 3.5202C24.5724 3.55108 24.4831 3.58196 24.3826 3.61284C24.2933 3.64372 24.1929 3.6746 24.0924 3.70548C23.9919 3.73635 23.9026 3.76723 23.8022 3.80934C23.7129 3.84022 23.6124 3.88233 23.512 3.91321C23.4227 3.94409 23.3222 3.98619 23.2218 4.02549C23.1213 4.0676 23.032 4.09848 22.9315 4.13778C22.8422 4.17989 22.7418 4.21919 22.6413 4.2613C22.552 4.3034 22.4711 4.33428 22.3818 4.37358C22.3707 4.37358 22.3623 4.38481 22.3511 4.38481C22.2507 4.42692 22.1614 4.47745 22.0609 4.51956C21.9604 4.56167 21.8712 4.61219 21.7707 4.6543C21.6702 4.70483 21.5809 4.74694 21.4805 4.80028C21.38 4.8508 21.2907 4.90414 21.1903 4.95467C21.0898 5.0052 21.0005 5.05854 20.9001 5.10907C20.7996 5.15959 20.7103 5.21293 20.6098 5.27469C20.5094 5.32522 20.4201 5.38698 20.3196 5.44031C20.2192 5.50207 20.1299 5.5526 20.0294 5.61716C19.929 5.67892 19.8397 5.74068 19.7392 5.80244C19.6387 5.8642 19.5495 5.92595 19.449 5.99894C19.3485 6.0607 19.2592 6.13369 19.1588 6.19544C19.0583 6.26843 18.969 6.33019 18.8686 6.40317C18.7681 6.47616 18.6788 6.54915 18.5784 6.61933C18.4779 6.69231 18.3886 6.7653 18.2881 6.84671C18.1877 6.92812 18.0984 7.0011 17.9979 7.08532C17.8975 7.16673 17.8082 7.25094 17.7077 7.33235C17.6073 7.41376 17.518 7.5092 17.4175 7.59061C17.317 7.68325 17.2277 7.76746 17.1273 7.8601C17.0268 7.95274 16.9375 8.04537 16.8371 8.13801C16.7366 8.23065 16.6473 8.33451 16.5469 8.42715C16.4464 8.53102 16.3571 8.63488 16.2567 8.72752C16.1562 8.83138 16.0669 8.94367 15.9664 9.04754C15.866 9.15982 15.7767 9.27492 15.6762 9.37878C15.5758 9.49107 15.4865 9.61739 15.386 9.72968C15.2856 9.8532 15.1963 9.97671 15.0958 10.1002C14.9953 10.2237 14.906 10.3585 14.8056 10.482C14.7051 10.6167 14.6158 10.7515 14.5154 10.8834C14.4149 11.0294 14.3256 11.1726 14.2252 11.3185C14.1247 11.4729 14.0354 11.6273 13.935 11.7733C13.8345 11.9389 13.7452 12.0933 13.6447 12.2589C13.5443 12.4358 13.455 12.6098 13.3545 12.7755C13.2541 12.9607 13.1648 13.146 13.0643 13.3341C12.9639 13.5306 12.8746 13.7355 12.7741 13.932C12.6736 14.1482 12.576 14.3671 12.4839 14.5833C12.3834 14.8219 12.2858 15.0577 12.1937 15.2963C12.0932 15.5658 11.9955 15.8325 11.9035 16.0823C11.7946 16.3911 11.7053 16.6915 11.6132 16.9806C11.5044 17.3512 11.4151 17.7049 11.323 18.0333C11.203 18.5386 11.1026 18.9821 11.0328 19.3667C10.8821 20.1836 10.8542 20.6693 10.8542 20.6693C10.8235 20.6805 10.7845 20.6889 10.7538 20.6889C10.6533 20.7086 10.564 20.731 10.4636 20.7507C10.3631 20.7703 10.2738 20.7928 10.1733 20.8237C10.0729 20.8433 9.98359 20.8742 9.88314 20.8966C9.78268 20.9275 9.69338 20.9472 9.59292 20.978C9.49246 21.0089 9.40317 21.0286 9.30271 21.0595C9.20225 21.0903 9.11296 21.1212 9.0125 21.1521C8.91204 21.183 8.82274 21.2139 8.72229 21.2447C8.62183 21.2756 8.53253 21.3177 8.43207 21.3486C8.33161 21.3907 8.24232 21.4216 8.14186 21.4609C8.0414 21.503 7.9521 21.5339 7.85165 21.5732C7.75119 21.6153 7.66189 21.6546 7.56143 21.6967C7.46098 21.7388 7.37168 21.7893 7.27122 21.8314C7.17076 21.882 7.08147 21.9241 6.98101 21.9774C6.88055 22.0279 6.79125 22.0813 6.6908 22.1318C6.59034 22.1823 6.50104 22.2441 6.40058 22.2974C6.30012 22.3592 6.21083 22.4097 6.11037 22.4743C6.00991 22.536 5.92062 22.5978 5.82016 22.6595C5.7197 22.7213 5.6304 22.7943 5.52994 22.8673C5.42949 22.9403 5.34019 23.0133 5.23973 23.0834C5.13927 23.1564 5.04998 23.2378 4.94952 23.322C4.84906 23.4034 4.75976 23.4877 4.65931 23.5803C4.55885 23.6729 4.46955 23.7656 4.36909 23.8582C4.26864 23.9621 4.17934 24.0547 4.07888 24.1586C3.97842 24.2624 3.88913 24.3747 3.78867 24.4898C3.68821 24.6021 3.59891 24.7284 3.49846 24.852C3.398 24.9867 3.3087 25.1102 3.20824 25.245C3.10778 25.3909 3.01012 25.5453 2.91803 25.6885C2.81757 25.8541 2.7199 26.0282 2.62782 26.1938C2.52736 26.3903 2.42969 26.5868 2.3376 26.7833C2.23715 27.0219 2.13948 27.2577 2.04739 27.4963C1.93856 27.8051 1.8381 28.1055 1.75718 28.4143C1.62882 28.8887 1.53673 29.3631 1.46697 29.8179C1.21861 31.533 1.35814 33.0096 1.46697 33.7732C1.5172 34.1241 1.55626 34.3206 1.55626 34.3206C1.52557 34.27 1.49766 34.2167 1.46697 34.1662C1.36651 33.9921 1.26884 33.804 1.17675 33.63C1.06792 33.4026 0.978628 33.1752 0.886541 32.9479C0.777711 32.611 0.680044 32.3022 0.610281 31.9794Z" fill="url(#paint0_linear)"/>
<defs>
<linearGradient id="paint0_linear" x1="0.320068" y1="17.8271" x2="74.3243" y2="17.8271" gradientUnits="userSpaceOnUse">
<stop stop-color="#4DB849"/>
<stop offset="0.5312" stop-color="#FFE500"/>
<stop offset="1" stop-color="#F6841F"/>
</linearGradient>
</defs>
</svg>
